<svg width="24" height="24" viewBox="0 0 24 24" fill="none" xmlns="http://www.w3.org/2000/svg">
<g clip-path="url(#clip0_479_3024)">
<path d="M5.82555 3.58406C3.36099 5.21267 1.83036 7.87871 1.53346 10.8005C1.19908 14.0606 2.34345 17.3747 4.76766 19.6428C7.45131 22.1497 11.3081 23.1132 14.8825 22.2094C18.6701 21.2487 21.642 17.9602 22.1465 14.1345C22.2675 13.2051 23.7405 13.3444 23.6166 14.2766C23.1064 18.1194 20.466 21.5642 16.8426 23.0791C13.0031 24.6878 8.46019 24.1535 5.0761 21.7688C1.87648 19.5178 0.0777774 15.9223 -5.1039e-05 12.0796C-0.0692319 8.47274 1.53634 4.91992 4.48518 2.74275C7.37636 0.608217 11.1957 -0.198984 14.698 0.710538C15.116 0.818544 15.5253 0.957814 15.926 1.11698C16.8051 1.46942 16.2805 2.83086 15.3956 2.47558C12.7609 1.4211 9.7804 1.63143 7.23223 2.80528C7.16305 2.84507 7.07369 2.88486 7.01604 2.92181" fill="url(#paint0_linear_479_3024)"/>
<path d="M4.59468 7.63446C6.2089 9.12096 7.16878 11.1333 8.17191 13.0347C9.17503 14.9362 10.2963 16.8576 11.9019 18.3412C12.8301 19.1996 13.9024 19.8704 15.1102 20.2654C15.4474 20.3763 15.8337 20.166 15.9605 19.8533C16.1018 19.5094 15.9692 19.1712 15.6665 18.9665C14.77 18.3583 14.427 17.1361 14.721 16.1527C14.9142 15.5075 15.4186 15.0243 15.9375 14.6094C16.5197 14.1461 17.1481 13.7396 17.7448 13.2905C19.0448 12.3128 20.3016 11.264 21.322 9.99922C22.3425 8.73441 23.089 7.34171 23.5358 5.80405C24.0374 4.08164 24.1239 2.28533 23.8385 0.520294C23.7578 0.0172147 22.9564 -0.193112 22.6336 0.207646C21.0799 2.14038 19.3965 3.96795 17.5978 5.68183C15.7991 7.39571 13.8102 9.06127 11.8616 10.6927L12.9944 10.8377C11.631 7.95563 8.31603 6.0968 5.10777 6.42366C4.72151 6.46345 4.38713 6.7221 4.38713 7.13422C4.38713 7.48666 4.71863 7.88458 5.10777 7.84479C7.86636 7.56625 10.5788 9.07833 11.7491 11.5568C11.9596 12.003 12.5591 11.9689 12.882 11.7017C14.8306 10.0731 16.7792 8.44166 18.6182 6.69083C20.4573 4.94 22.1003 3.14938 23.654 1.21665L22.4491 0.903998C22.9478 3.985 21.9504 7.18254 19.8664 9.51319C18.7796 10.7268 17.4912 11.7415 16.1681 12.6908C14.917 13.589 13.5334 14.5212 13.2509 16.1385C12.9684 17.7557 13.6141 19.2934 14.943 20.1972L15.4993 18.8983C13.5651 18.2673 12.1325 16.7155 11.0343 15.0869C9.8409 13.3161 8.99631 11.3493 7.8923 9.5274C7.25814 8.47861 6.52598 7.46961 5.61798 6.63399C4.94058 6.01153 3.92016 7.01201 4.59756 7.64014L4.59468 7.63446Z" fill="url(#paint1_linear_479_3024)"/>
</g>
<defs>
<linearGradient id="paint0_linear_479_3024" x1="-0.312388" y1="12.962" x2="25.479" y2="11.2592" gradientUnits="userSpaceOnUse">
<stop stop-color="#006AFF"/>
<stop offset="0.07" stop-color="#1C63FB"/>
<stop offset="0.29" stop-color="#6D50F2"/>
<stop offset="0.45" stop-color="#A144ED"/>
<stop offset="0.52" stop-color="#B540EB"/>
<stop offset="0.6" stop-color="#9D54DC"/>
<stop offset="0.76" stop-color="#608AB6"/>
<stop offset="1" stop-color="#00DF7A"/>
</linearGradient>
<linearGradient id="paint1_linear_479_3024" x1="5.00688" y1="10.147" x2="23.4321" y2="10.147" gradientUnits="userSpaceOnUse">
<stop stop-color="#006AFF"/>
<stop offset="0.07" stop-color="#1C63FB"/>
<stop offset="0.29" stop-color="#6D50F2"/>
<stop offset="0.45" stop-color="#A144ED"/>
<stop offset="0.52" stop-color="#B540EB"/>
<stop offset="0.6" stop-color="#9858D9"/>
<stop offset="0.76" stop-color="#5098AC"/>
<stop offset="0.92" stop-color="#00DF7A"/>
</linearGradient>
<clipPath id="clip0_479_3024">
<rect width="24" height="24" fill="white"/>
</clipPath>
</defs>
</svg>
