<svg width="23" height="21" viewBox="0 0 23 21" fill="none" xmlns="http://www.w3.org/2000/svg">
<g clip-path="url(#clip0_91_352)">
<path d="M13.9355 20.8301H21.3574C21.8522 20.8301 22.2445 20.669 22.5342 20.3467C22.8239 20.0244 22.9688 19.5931 22.9688 19.0527V6.5918C22.9688 6.05143 22.8239 5.62012 22.5342 5.29785C22.2445 4.97558 21.8522 4.81445 21.3574 4.81445H14.6387V6.38672H20.8398C21.0286 6.38672 21.1686 6.43229 21.2598 6.52344C21.3509 6.61459 21.3965 6.75781 21.3965 6.95312V18.6914C21.3965 18.8867 21.3509 19.03 21.2598 19.1211C21.1686 19.2122 21.0286 19.2578 20.8398 19.2578H13.9355V20.8301ZM17.6855 10.1855H19.2578C19.4791 10.1855 19.5898 10.0748 19.5898 9.85352V8.33008C19.5898 8.10873 19.4791 7.99805 19.2578 7.99805H17.6855C17.4707 7.99805 17.3633 8.10873 17.3633 8.33008V9.85352C17.3633 10.0748 17.4707 10.1855 17.6855 10.1855ZM17.6855 13.916H19.2578C19.4791 13.916 19.5898 13.8053 19.5898 13.584V12.0605C19.5898 11.8392 19.4791 11.7285 19.2578 11.7285H17.6855C17.4707 11.7285 17.3633 11.8392 17.3633 12.0605V13.584C17.3633 13.8053 17.4707 13.916 17.6855 13.916ZM17.6855 17.6465H19.2578C19.4791 17.6465 19.5898 17.5358 19.5898 17.3145V15.791C19.5898 15.5697 19.4791 15.459 19.2578 15.459H17.6855C17.4707 15.459 17.3633 15.5697 17.3633 15.791V17.3145C17.3633 17.5358 17.4707 17.6465 17.6855 17.6465ZM0 19.0527C0 19.5931 0.144857 20.0244 0.43457 20.3467C0.724284 20.669 1.11979 20.8301 1.62109 20.8301H13.9355C14.4303 20.8301 14.8226 20.669 15.1123 20.3467C15.402 20.0244 15.5469 19.5931 15.5469 19.0527V1.78711C15.5469 1.24023 15.402 0.807292 15.1123 0.488281C14.8226 0.169271 14.4303 0.00976562 13.9355 0.00976562H1.62109C1.11979 0.00976562 0.724284 0.169271 0.43457 0.488281C0.144857 0.807292 0 1.24023 0 1.78711V19.0527ZM1.57227 18.6914V2.14844C1.57227 1.95313 1.61784 1.8099 1.70898 1.71875C1.80013 1.6276 1.94336 1.58203 2.13867 1.58203H13.418C13.6068 1.58203 13.7468 1.6276 13.8379 1.71875C13.929 1.8099 13.9746 1.95313 13.9746 2.14844V18.6914C13.9746 18.8867 13.929 19.03 13.8379 19.1211C13.7468 19.2122 13.6068 19.2578 13.418 19.2578H2.13867C1.94336 19.2578 1.80013 19.2122 1.70898 19.1211C1.61784 19.03 1.57227 18.8867 1.57227 18.6914ZM4.375 20H5.6543V16.7383C5.6543 16.53 5.75847 16.4258 5.9668 16.4258H9.58008C9.78841 16.4258 9.89258 16.53 9.89258 16.7383V20H11.1719V16.377C11.1719 15.9538 11.0775 15.6429 10.8887 15.4443C10.6999 15.2458 10.4037 15.1465 10 15.1465H5.54688C5.14974 15.1465 4.85514 15.2458 4.66309 15.4443C4.47103 15.6429 4.375 15.9538 4.375 16.377V20ZM4.53125 5.84961H6.43555C6.70248 5.84961 6.83594 5.71615 6.83594 5.44922V3.60352C6.83594 3.33659 6.70248 3.20312 6.43555 3.20312H4.53125C4.27734 3.20312 4.15039 3.33659 4.15039 3.60352V5.44922C4.15039 5.71615 4.27734 5.84961 4.53125 5.84961ZM9.11133 5.84961H11.0059C11.2728 5.84961 11.4062 5.71615 11.4062 5.44922V3.60352C11.4062 3.33659 11.2728 3.20312 11.0059 3.20312H9.11133C8.85091 3.20312 8.7207 3.33659 8.7207 3.60352V5.44922C8.7207 5.71615 8.85091 5.84961 9.11133 5.84961ZM4.53125 9.7168H6.43555C6.70248 9.7168 6.83594 9.58334 6.83594 9.31641V7.4707C6.83594 7.20377 6.70248 7.07031 6.43555 7.07031H4.53125C4.27734 7.07031 4.15039 7.20377 4.15039 7.4707V9.31641C4.15039 9.58334 4.27734 9.7168 4.53125 9.7168ZM9.11133 9.7168H11.0059C11.2728 9.7168 11.4062 9.58334 11.4062 9.31641V7.4707C11.4062 7.20377 11.2728 7.07031 11.0059 7.07031H9.11133C8.85091 7.07031 8.7207 7.20377 8.7207 7.4707V9.31641C8.7207 9.58334 8.85091 9.7168 9.11133 9.7168ZM4.53125 13.584H6.43555C6.70248 13.584 6.83594 13.4505 6.83594 13.1836V11.3379C6.83594 11.071 6.70248 10.9375 6.43555 10.9375H4.53125C4.27734 10.9375 4.15039 11.071 4.15039 11.3379V13.1836C4.15039 13.4505 4.27734 13.584 4.53125 13.584ZM9.11133 13.584H11.0059C11.2728 13.584 11.4062 13.4505 11.4062 13.1836V11.3379C11.4062 11.071 11.2728 10.9375 11.0059 10.9375H9.11133C8.85091 10.9375 8.7207 11.071 8.7207 11.3379V13.1836C8.7207 13.4505 8.85091 13.584 9.11133 13.584Z" fill="#8E8E93"/>
</g>
<defs>
<clipPath id="clip0_91_352">
<rect width="22.9688" height="20.8301" fill="white"/>
</clipPath>
</defs>
</svg>
