<svg width="24" height="24" viewBox="0 0 24 24" fill="none" xmlns="http://www.w3.org/2000/svg">
<path d="M11.999 7.37691C10.7726 7.37691 9.59651 7.86408 8.72934 8.73124C7.86217 9.59841 7.375 10.7745 7.375 12.0009C7.375 13.2273 7.86217 14.4034 8.72934 15.2706C9.59651 16.1377 10.7726 16.6249 11.999 16.6249C13.2254 16.6249 14.4015 16.1377 15.2687 15.2706C16.1358 14.4034 16.623 13.2273 16.623 12.0009C16.623 10.7745 16.1358 9.59841 15.2687 8.73124C14.4015 7.86408 13.2254 7.37691 11.999 7.37691ZM11.999 15.0039C11.6045 15.0039 11.2139 14.9262 10.8494 14.7752C10.485 14.6243 10.1538 14.403 9.87485 14.1241C9.5959 13.8451 9.37463 13.5139 9.22367 13.1495C9.0727 12.785 8.995 12.3944 8.995 11.9999C8.995 11.6054 9.0727 11.2148 9.22367 10.8503C9.37463 10.4859 9.5959 10.1547 9.87485 9.87576C10.1538 9.59681 10.485 9.37554 10.8494 9.22457C11.2139 9.07361 11.6045 8.99591 11.999 8.99591C12.7957 8.99591 13.5598 9.3124 14.1231 9.87576C14.6865 10.4391 15.003 11.2032 15.003 11.9999C15.003 12.7966 14.6865 13.5607 14.1231 14.1241C13.5598 14.6874 12.7957 15.0039 11.999 15.0039ZM16.806 6.12891C16.5201 6.12891 16.2459 6.24248 16.0437 6.44464C15.8416 6.64681 15.728 6.921 15.728 7.20691C15.728 7.49281 15.8416 7.767 16.0437 7.96917C16.2459 8.17133 16.5201 8.28491 16.806 8.28491C17.0919 8.28491 17.3661 8.17133 17.5683 7.96917C17.7704 7.767 17.884 7.49281 17.884 7.20691C17.884 6.921 17.7704 6.64681 17.5683 6.44464C17.3661 6.24248 17.0919 6.12891 16.806 6.12891Z" fill="white"/>
<path d="M20.533 6.11088C20.3018 5.51291 19.9481 4.96987 19.4947 4.51661C19.0412 4.06335 18.4981 3.70988 17.9 3.47888C17.2004 3.21613 16.4612 3.07411 15.714 3.05888C14.751 3.01688 14.446 3.00488 12.004 3.00488C9.56201 3.00488 9.24901 3.00488 8.29401 3.05888C7.5475 3.07433 6.80902 3.21635 6.11001 3.47888C5.51195 3.70988 4.96878 4.06335 4.51535 4.51661C4.06192 4.96987 3.70824 5.51291 3.47701 6.11088C3.2146 6.81057 3.07292 7.54975 3.05801 8.29688C3.01501 9.25888 3.00201 9.56388 3.00201 12.0069C3.00201 14.4499 3.00201 14.7599 3.05801 15.7169C3.07301 16.4649 3.21401 17.2029 3.47701 17.9039C3.70835 18.502 4.06218 19.0451 4.51579 19.4983C4.9694 19.9516 5.51277 20.305 6.11101 20.5359C6.80854 20.8088 7.54742 20.961 8.29601 20.9859C9.25901 21.0279 9.56401 21.0409 12.006 21.0409C14.448 21.0409 14.761 21.0409 15.716 20.9859C16.4631 20.971 17.2023 20.8293 17.902 20.5669C18.5002 20.3358 19.0434 19.9821 19.4968 19.5287C19.9503 19.0753 20.3039 18.532 20.535 17.9339C20.798 17.2339 20.939 16.4959 20.954 15.7479C20.997 14.7859 21.01 14.4809 21.01 12.0379C21.01 9.59488 21.01 9.28488 20.954 8.32788C20.942 7.57019 20.7996 6.82023 20.533 6.11088ZM19.315 15.6429C19.3094 16.2193 19.2042 16.7903 19.004 17.3309C18.8531 17.7193 18.623 18.0721 18.3282 18.3667C18.0335 18.6613 17.6806 18.8912 17.292 19.0419C16.7572 19.24 16.1923 19.3452 15.622 19.3529C14.672 19.3969 14.404 19.4079 11.968 19.4079C9.53001 19.4079 9.28101 19.4079 8.31301 19.3529C7.74302 19.3451 7.17855 19.2399 6.64401 19.0419C6.25417 18.8921 5.8999 18.6625 5.6039 18.3678C5.30789 18.0732 5.07666 17.72 4.92501 17.3309C4.72883 16.7958 4.6237 16.2317 4.61401 15.6619C4.57101 14.7119 4.56101 14.4439 4.56101 12.0079C4.56101 9.57188 4.56101 9.32188 4.61401 8.35288C4.61972 7.77683 4.72494 7.2061 4.92501 6.66588C5.23001 5.87688 5.85501 5.25588 6.64401 4.95388C7.17855 4.75583 7.74302 4.65065 8.31301 4.64288C9.26401 4.59988 9.53101 4.58788 11.968 4.58788C14.405 4.58788 14.655 4.58788 15.622 4.64288C16.1923 4.65054 16.7572 4.75572 17.292 4.95388C17.6807 5.10464 18.0336 5.33474 18.3284 5.62951C18.6232 5.92427 18.8533 6.27724 19.004 6.66588C19.2002 7.20093 19.3053 7.76508 19.315 8.33488C19.358 9.28588 19.369 9.55288 19.369 11.9899C19.369 14.4269 19.369 14.6879 19.326 15.6439L19.315 15.6429Z" fill="white"/>
</svg>
