<svg width="46" height="46" viewBox="0 0 46 46" fill="none" xmlns="http://www.w3.org/2000/svg">
<path d="M9.84273 5.98651C9.30398 5.98651 8.77051 6.09263 8.27277 6.2988C7.77504 6.50497 7.32278 6.80715 6.94183 7.18811C6.56088 7.56906 6.25869 8.02131 6.05252 8.51905C5.84635 9.01679 5.74023 9.55026 5.74023 10.089C5.74023 10.6278 5.84635 11.1612 6.05252 11.659C6.25869 12.1567 6.56088 12.609 6.94183 12.9899C7.32278 13.3709 7.77504 13.6731 8.27277 13.8792C8.77051 14.0854 9.30398 14.1915 9.84273 14.1915C10.3815 14.1915 10.915 14.0854 11.4127 13.8792C11.9104 13.6731 12.3627 13.3709 12.7436 12.9899C13.1246 12.609 13.4268 12.1567 13.6329 11.659C13.8391 11.1612 13.9452 10.6278 13.9452 10.089C13.9452 9.55026 13.8391 9.01679 13.6329 8.51905C13.4268 8.02131 13.1246 7.56906 12.7436 7.18811C12.3627 6.80715 11.9104 6.50497 11.4127 6.2988C10.915 6.09263 10.3815 5.98651 9.84273 5.98651ZM17.819 17.3003V40.0609H24.8859V28.8053C24.8859 25.8353 25.4446 22.959 29.1271 22.959C32.759 22.959 32.804 26.3546 32.804 28.9928V40.0628H39.8746V27.5809C39.8746 21.4496 38.5546 16.7378 31.3884 16.7378C27.9477 16.7378 25.6415 18.6259 24.6984 20.4128H24.6027V17.3003H17.819ZM6.30273 17.3003H13.3809V40.0609H6.30273V17.3003Z" fill="black"/>
</svg>
