<svg width="24" height="24" viewBox="0 0 24 24" fill="none" xmlns="http://www.w3.org/2000/svg">
<path d="M4.98298 2.8208C4.69565 2.8208 4.41113 2.8774 4.14567 2.98735C3.88021 3.09731 3.63901 3.25848 3.43583 3.46165C3.23266 3.66483 3.07149 3.90603 2.96153 4.17149C2.85158 4.43695 2.79498 4.72147 2.79498 5.0088C2.79498 5.29613 2.85158 5.58065 2.96153 5.84611C3.07149 6.11157 3.23266 6.35278 3.43583 6.55595C3.63901 6.75912 3.88021 6.92029 4.14567 7.03025C4.41113 7.14021 4.69565 7.1968 4.98298 7.1968C5.27031 7.1968 5.55483 7.14021 5.82029 7.03025C6.08575 6.92029 6.32696 6.75912 6.53013 6.55595C6.73331 6.35278 6.89447 6.11157 7.00443 5.84611C7.11439 5.58065 7.17098 5.29613 7.17098 5.0088C7.17098 4.72147 7.11439 4.43695 7.00443 4.17149C6.89447 3.90603 6.73331 3.66483 6.53013 3.46165C6.32696 3.25848 6.08575 3.09731 5.82029 2.98735C5.55483 2.8774 5.27031 2.8208 4.98298 2.8208ZM9.23698 8.8548V20.9938H13.006V14.9908C13.006 13.4068 13.304 11.8728 15.268 11.8728C17.205 11.8728 17.229 13.6838 17.229 15.0908V20.9948H21V14.3378C21 11.0678 20.296 8.5548 16.474 8.5548C14.639 8.5548 13.409 9.5618 12.906 10.5148H12.855V8.8548H9.23698ZM3.09498 8.8548H6.86998V20.9938H3.09498V8.8548Z" fill="white"/>
</svg>
