<svg width="22" height="18" viewBox="0 0 22 18" fill="none" xmlns="http://www.w3.org/2000/svg">
<g clip-path="url(#clip0_3_1675)">
<path d="M10.8008 10.3348C11.1914 10.3348 11.5918 10.1298 12.002 9.7196L20.498 1.3114C20.1335 0.966349 19.4662 0.793823 18.4961 0.793823H2.77344C1.94661 0.793823 1.3737 0.953329 1.05469 1.27234L9.59961 9.7196C10.0033 10.1298 10.4037 10.3348 10.8008 10.3348ZM0.244141 16.0477L7.14844 9.22156L0.224609 2.39538C0.0748697 2.67534 0 3.14734 0 3.8114V14.5927C0 15.2828 0.0813803 15.7678 0.244141 16.0477ZM3.06641 17.62H18.7891C19.6029 17.62 20.1725 17.4638 20.498 17.1513L13.457 10.1786L12.8125 10.8329C12.155 11.4579 11.4844 11.7704 10.8008 11.7704C10.1107 11.7704 9.4401 11.4579 8.78906 10.8329L8.13477 10.1786L1.11328 17.1415C1.48437 17.4605 2.13542 17.62 3.06641 17.62ZM21.3281 16.038C21.4844 15.7515 21.5625 15.2698 21.5625 14.5927V3.8114C21.5625 3.15385 21.4909 2.69161 21.3477 2.42468L14.4434 9.22156L21.3281 16.038Z" fill="#8E8E93"/>
</g>
<defs>
<clipPath id="clip0_3_1675">
<rect width="21.5625" height="16.8457" fill="white" transform="translate(0 0.774292)"/>
</clipPath>
</defs>
</svg>
