<svg width="14" height="20" viewBox="0 0 14 20" fill="none" xmlns="http://www.w3.org/2000/svg">
<g clip-path="url(#clip0_3_1685)">
<path d="M1.875 19.4403H11.1719C11.8034 19.4403 12.2737 19.2792 12.583 18.9569C12.8923 18.6347 13.0469 18.1317 13.0469 17.4481V10.2802C13.0469 9.60313 12.8923 9.10345 12.583 8.78118C12.2737 8.45892 11.8034 8.29779 11.1719 8.29779L2.07031 8.31732C1.44531 8.31732 0.944009 8.47683 0.566406 8.79583C0.188802 9.11485 0 9.60964 0 10.2802V17.4481C0 18.1317 0.15625 18.6347 0.46875 18.9569C0.78125 19.2792 1.25 19.4403 1.875 19.4403ZM1.55273 8.95208H3.125V5.64154C3.125 4.82123 3.28125 4.13275 3.59375 3.57611C3.90625 3.01947 4.32129 2.59955 4.83887 2.31634C5.35644 2.03314 5.91797 1.89154 6.52344 1.89154C7.13542 1.89154 7.69857 2.03314 8.21289 2.31634C8.72722 2.59955 9.14063 3.01947 9.45312 3.57611C9.76563 4.13275 9.92188 4.82123 9.92188 5.64154V8.95208H11.4941V5.84661C11.4941 4.92865 11.3574 4.12787 11.084 3.44427C10.8105 2.76068 10.4394 2.19265 9.9707 1.74017C9.50195 1.2877 8.96973 0.949158 8.37402 0.724548C7.77832 0.499939 7.16146 0.387634 6.52344 0.387634C5.88542 0.387634 5.27018 0.499939 4.67773 0.724548C4.08528 0.949158 3.55469 1.2877 3.08594 1.74017C2.61719 2.19265 2.24446 2.76068 1.96777 3.44427C1.69108 4.12787 1.55273 4.92865 1.55273 5.84661V8.95208Z" fill="#8E8E93"/>
</g>
<defs>
<clipPath id="clip0_3_1685">
<rect width="13.0469" height="19.6191" fill="white" transform="translate(0 0.387634)"/>
</clipPath>
</defs>
</svg>
