<svg width="19" height="19" viewBox="0 0 19 19" fill="none" xmlns="http://www.w3.org/2000/svg">
<g clip-path="url(#clip0_1_2320)">
<path d="M0 7.68474C0 8.74404 0.200956 9.73752 0.602867 10.6652C1.00478 11.5929 1.56227 12.4099 2.27534 13.1161C2.98841 13.8223 3.8133 14.3744 4.75001 14.7724C5.68672 15.1704 6.68988 15.3694 7.75948 15.3694C8.6022 15.3694 9.40601 15.241 10.1709 14.9843C10.9359 14.7275 11.636 14.3744 12.2712 13.925L17.0553 18.6725C17.172 18.7817 17.3 18.8636 17.4393 18.9182C17.5787 18.9727 17.7262 19 17.8818 19C18.1022 19 18.2967 18.9502 18.4652 18.8507C18.6337 18.7512 18.765 18.6148 18.859 18.4415C18.953 18.2681 19 18.0755 19 17.8636C19 17.7096 18.9725 17.5651 18.9174 17.4303C18.8623 17.2955 18.7829 17.1767 18.6792 17.074L13.9243 12.3361C14.4234 11.694 14.814 10.9782 15.0959 10.1885C15.3779 9.39886 15.5189 8.56428 15.5189 7.68474C15.5189 6.62544 15.318 5.63194 14.9161 4.70425C14.5142 3.77657 13.9567 2.95962 13.2436 2.25342C12.5306 1.54722 11.7057 0.995101 10.7689 0.59706C9.83223 0.19902 8.82909 0 7.75948 0C6.68988 0 5.68672 0.19902 4.75001 0.59706C3.8133 0.995101 2.98841 1.54722 2.27534 2.25342C1.56227 2.95962 1.00478 3.77657 0.602867 4.70425C0.200956 5.63194 0 6.62544 0 7.68474ZM1.66274 7.68474C1.66274 6.85014 1.81994 6.0685 2.13434 5.33983C2.44874 4.61116 2.88631 3.96916 3.44703 3.41383C4.00777 2.8585 4.65601 2.42515 5.39177 2.11378C6.12753 1.80241 6.91677 1.64673 7.75948 1.64673C8.6022 1.64673 9.39144 1.80241 10.1272 2.11378C10.863 2.42515 11.5096 2.8585 12.067 3.41383C12.6245 3.96916 13.0621 4.61116 13.3798 5.33983C13.6974 6.0685 13.8562 6.85014 13.8562 7.68474C13.8562 8.51934 13.6974 9.30097 13.3798 10.0296C13.0621 10.7583 12.6245 11.3987 12.067 11.9508C11.5096 12.5029 10.863 12.9363 10.1272 13.2509C9.39144 13.5654 8.6022 13.7227 7.75948 13.7227C6.91677 13.7227 6.12753 13.5654 5.39177 13.2509C4.65601 12.9363 4.00777 12.5029 3.44703 11.9508C2.88631 11.3987 2.44874 10.7583 2.13434 10.0296C1.81994 9.30097 1.66274 8.51934 1.66274 7.68474Z" fill="#8E8E93"/>
</g>
<defs>
<clipPath id="clip0_1_2320">
<rect width="19" height="19" fill="white"/>
</clipPath>
</defs>
</svg>
