<svg width="24" height="25" viewBox="0 0 24 25" fill="none" xmlns="http://www.w3.org/2000/svg">
<g clip-path="url(#clip0_559_2454)">
<path d="M3.06641 22.5781H19.9609C20.9896 22.5781 21.7578 22.3242 22.2656 21.8164C22.7734 21.3086 23.0273 20.5534 23.0273 19.5508V13.7695C23.0273 13.4766 23.011 13.2243 22.9785 13.0127C22.946 12.8011 22.889 12.609 22.8076 12.4365C22.7262 12.264 22.6139 12.0898 22.4707 11.9141L19.1016 7.73438C18.7175 7.26563 18.3643 6.86523 18.042 6.5332C17.7197 6.20117 17.3633 5.94727 16.9727 5.77148C16.582 5.5957 16.1002 5.50781 15.5273 5.50781H14.0918V6.88477H15.6348C15.9929 6.88477 16.3444 7.01498 16.6895 7.27539C17.0345 7.53581 17.3275 7.81576 17.5684 8.11523L21.0352 12.4805C21.2305 12.7344 21.2988 12.9134 21.2402 13.0176C21.1816 13.1217 21.0189 13.1738 20.752 13.1738H14.7266C14.4531 13.1738 14.2513 13.2617 14.1211 13.4375C13.9909 13.6133 13.9258 13.8086 13.9258 14.0234V14.0625C13.9258 14.4596 13.8265 14.847 13.6279 15.2246C13.4294 15.6022 13.1494 15.9131 12.7881 16.1572C12.4268 16.4013 12.002 16.5234 11.5137 16.5234C11.0254 16.5234 10.6006 16.4013 10.2393 16.1572C9.87795 15.9131 9.59961 15.6022 9.4043 15.2246C9.20899 14.847 9.11133 14.4596 9.11133 14.0625V14.0234C9.11133 13.8086 9.0446 13.6133 8.91113 13.4375C8.77767 13.2617 8.57422 13.1738 8.30078 13.1738H2.29492C2.01497 13.1738 1.84896 13.1168 1.79688 13.0029C1.74479 12.889 1.81315 12.7148 2.00195 12.4805L5.45898 8.11523C5.69987 7.81576 5.99446 7.53581 6.34277 7.27539C6.69108 7.01498 7.04101 6.88477 7.39258 6.88477H8.94531V5.50781H7.50977C6.93034 5.50781 6.44694 5.5957 6.05957 5.77148C5.6722 5.94727 5.31576 6.20117 4.99023 6.5332C4.66471 6.86523 4.31315 7.26563 3.93555 7.73438L0.556641 11.9141C0.413412 12.0898 0.301107 12.264 0.219727 12.4365C0.138346 12.609 0.0813802 12.8011 0.0488281 13.0127C0.016276 13.2243 0 13.4766 0 13.7695V19.5508C0 20.5599 0.255534 21.3168 0.766602 21.8213C1.27767 22.3258 2.04427 22.5781 3.06641 22.5781ZM11.5137 13.0566C11.6114 13.0566 11.7058 13.0387 11.7969 13.0029C11.888 12.9671 11.9824 12.9004 12.0801 12.8027L15.3809 9.61914C15.5306 9.46289 15.6055 9.29037 15.6055 9.10156C15.6055 8.89974 15.5388 8.73535 15.4053 8.6084C15.2718 8.48145 15.1042 8.41797 14.9023 8.41797C14.681 8.41797 14.5019 8.49609 14.3652 8.65234L12.8906 10.2246L12.2266 10.918L12.2949 9.45312V0.751953C12.2949 0.55013 12.2168 0.374349 12.0605 0.224609C11.9043 0.0748697 11.722 0 11.5137 0C11.3054 0 11.1247 0.0748697 10.9717 0.224609C10.8187 0.374349 10.7422 0.55013 10.7422 0.751953V9.45312L10.8008 10.918L10.1367 10.2246L8.66211 8.65234C8.52539 8.49609 8.3431 8.41797 8.11523 8.41797C7.91341 8.41797 7.7474 8.48145 7.61719 8.6084C7.48698 8.73535 7.42188 8.89974 7.42188 9.10156C7.42188 9.29037 7.49675 9.46289 7.64648 9.61914L10.9473 12.8027C11.045 12.9004 11.1394 12.9671 11.2305 13.0029C11.3216 13.0387 11.416 13.0566 11.5137 13.0566Z" fill="#8E8E93"/>
</g>
<defs>
<clipPath id="clip0_559_2454">
<rect width="23.0273" height="24.5605" fill="white"/>
</clipPath>
</defs>
</svg>
