<svg width="33" height="27" viewBox="0 0 33 27" fill="none" xmlns="http://www.w3.org/2000/svg">
<g clip-path="url(#clip0_559_2465)">
<path d="M32.972 2.95534C32.9783 2.97709 32.9845 3.00196 32.9845 3.02371C32.9565 2.88386 32.8881 2.74713 32.7887 2.63525C32.8726 2.71916 32.9348 2.82482 32.972 2.95534Z" fill="url(#paint0_linear_559_2465)"/>
<path d="M33 3.16372C33 3.29735 32.9689 3.41855 32.9099 3.5211C32.9782 3.37815 33.0062 3.21655 32.9907 3.06738C32.9969 3.09846 33 3.13264 33 3.16372Z" fill="url(#paint1_linear_559_2465)"/>
<path d="M31.3001 17.0359C31.3063 18.3504 31.3125 19.6649 31.3156 20.9795C31.3188 21.977 31.297 23.0336 30.8122 23.9348C30.2497 24.9821 29.1527 25.3177 28.034 25.3426C26.7505 25.3706 25.4609 25.3426 24.1743 25.3426C21.5452 25.3426 18.9162 25.3426 16.2871 25.3395C15.2865 25.3395 15.2865 23.7857 16.2871 23.7857C18.969 23.7888 21.6478 23.7888 24.3297 23.7888C25.5044 23.7888 26.6791 23.7981 27.8537 23.7888C28.6369 23.7826 29.3392 23.6831 29.594 22.8441C29.8613 21.9553 29.7618 20.9639 29.7587 20.0503C29.7525 18.8663 29.7494 17.6792 29.7432 16.4952C29.7401 15.8767 29.7401 15.2583 29.737 14.6399C29.7339 14.2701 29.7587 13.8879 29.737 13.5118C27.4808 15.9638 25.1221 18.3224 22.8877 20.7992C22.6081 21.11 22.0766 21.082 21.7907 20.7992C20.8087 19.8172 19.777 18.8911 18.7857 17.9247C18.0647 17.2255 19.1648 16.1253 19.8827 16.8246C20.6844 17.6015 21.5079 18.3566 22.3097 19.1335C24.3608 16.8836 26.5112 14.7176 28.5778 12.477C28.2826 12.4739 27.9812 12.4925 27.6953 12.4894C25.3148 12.4677 22.9312 12.4459 20.5508 12.421C19.5501 12.4117 19.5501 10.8579 20.5508 10.8672C22.0362 10.8828 23.5217 10.8952 25.0071 10.9107C25.725 10.917 26.4429 10.9232 27.1576 10.9294C27.8382 10.9356 28.5405 10.8952 29.218 10.9729C29.7867 11.035 30.3243 11.2215 30.7034 11.6721C31.0857 12.132 31.2131 12.6976 31.2659 13.2788C31.3747 14.5156 31.2939 15.7928 31.3001 17.0359Z" fill="url(#paint2_linear_559_2465)"/>
<path d="M12.7289 8.40319C11.3553 6.46713 8.59885 6.38011 6.47011 6.16569C4.77956 5.99787 3.00821 5.66225 1.61288 4.72064C1.76515 6.05692 2.22508 7.34659 2.97091 8.4902C4.04616 10.131 5.68699 11.0851 7.24081 12.21C8.7822 13.3226 10.1931 14.7894 10.4541 16.7534C10.6996 18.5993 9.69273 20.3987 8.27876 21.5174C7.04503 22.4932 5.59065 22.9935 4.07413 23.3198C3.66392 23.4069 3.23506 23.2422 3.10144 22.8102C2.98335 22.4373 3.19777 21.9245 3.61109 21.8375C4.27612 21.6945 5.14626 21.5081 5.66213 21.2626C6.44215 20.8897 7.25324 20.4577 7.84991 19.8175C8.89718 18.6957 9.28253 17.1015 8.50872 15.7186C7.61994 14.1275 5.96046 13.2293 4.52473 12.2038C2.99888 11.1099 1.76204 9.77055 0.963381 8.06135C0.217548 6.4547 -0.1274 4.66781 0.0404124 2.89956C0.111888 2.16305 1.00378 1.77149 1.47303 2.45828C2.82175 4.4223 5.57201 4.52796 7.70385 4.73928C10.0719 4.97235 12.5797 5.50998 14.0403 7.57345C14.6214 8.39076 13.3038 9.21428 12.7289 8.40319Z" fill="url(#paint3_linear_559_2465)"/>
<path d="M25.3987 1.22767C25.4205 1.37684 25.3987 1.53843 25.3334 1.68449C25.3334 1.69071 25.3272 1.69692 25.3241 1.70003C25.2371 1.8927 25.0786 2.0543 24.8642 2.09159C22.0611 2.59814 19.1586 4.0494 18.4438 7.03274C18.1517 8.26336 18.1362 9.47534 18.2542 10.7246C18.3692 11.921 18.3288 13.1237 18.1206 14.3077C17.6887 16.7565 16.514 19.0375 14.9073 20.927C11.4796 24.9545 6.11271 27.1423 0.860803 26.9527C0.441272 26.9372 0.0714633 26.6481 0.0559251 26.2037C0.0403869 25.806 0.385335 25.3833 0.804866 25.3989C3.70118 25.5045 6.60682 24.8799 9.17373 23.5188C13.3659 21.2937 16.7035 17.1108 16.7688 12.2287C16.7843 11.1721 16.5948 10.1279 16.6227 9.06824C16.66 7.61076 16.9211 6.06626 17.6576 4.78902C18.2511 3.7635 19.084 2.93376 20.0536 2.28737C20.0256 2.28116 19.9976 2.27805 19.9697 2.26873C19.6465 2.18793 19.3357 2.05741 19.0187 1.95796C18.1517 1.68449 17.0019 1.28361 16.1286 1.73111C15.389 2.11335 15.0223 2.93065 15.1311 3.73242C15.187 4.14885 14.7706 4.52176 14.3821 4.5373C13.9315 4.55284 13.6332 4.20479 13.5773 3.78836C13.4094 2.52355 14.0683 1.23078 15.1155 0.531558C16.7253 -0.543684 18.5619 0.258086 20.2152 0.730447C20.4078 0.786385 20.6036 0.820569 20.7994 0.848537C20.818 0.848537 20.8305 0.854753 20.8398 0.85786C20.6906 0.851645 20.9082 0.873398 20.8429 0.85786H20.8491C20.9175 0.85786 20.9828 0.864076 21.0511 0.867183C21.2065 0.873398 21.365 0.873398 21.5204 0.873398C22.5521 0.854753 23.5807 0.718017 24.6 0.575065C24.8051 0.547097 25.0009 0.631003 25.147 0.777062C25.1532 0.786385 25.1625 0.795708 25.1718 0.80503C25.2744 0.913798 25.349 1.04743 25.3801 1.18727C25.3832 1.20281 25.3863 1.21524 25.3863 1.23078L25.3987 1.22767Z" fill="url(#paint4_linear_559_2465)"/>
</g>
<defs>
<linearGradient id="paint0_linear_559_2465" x1="32.8104" y1="2.83414" x2="32.9658" y2="2.82171" gradientUnits="userSpaceOnUse">
<stop stop-color="#006AFF"/>
<stop offset="0.07" stop-color="#1C63FB"/>
<stop offset="0.29" stop-color="#6D50F2"/>
<stop offset="0.45" stop-color="#A144ED"/>
<stop offset="0.52" stop-color="#B540EB"/>
<stop offset="0.61" stop-color="#9858D9"/>
<stop offset="0.8" stop-color="#5098AC"/>
<stop offset="1" stop-color="#00DF7A"/>
</linearGradient>
<linearGradient id="paint1_linear_559_2465" x1="32.9005" y1="3.29735" x2="33.0062" y2="3.28802" gradientUnits="userSpaceOnUse">
<stop stop-color="#006AFF"/>
<stop offset="0.07" stop-color="#1C63FB"/>
<stop offset="0.29" stop-color="#6D50F2"/>
<stop offset="0.45" stop-color="#A144ED"/>
<stop offset="0.52" stop-color="#B540EB"/>
<stop offset="0.61" stop-color="#9858D9"/>
<stop offset="0.8" stop-color="#5098AC"/>
<stop offset="1" stop-color="#00DF7A"/>
</linearGradient>
<linearGradient id="paint2_linear_559_2465" x1="1.27412" y1="17.9806" x2="30.4238" y2="18.1888" gradientUnits="userSpaceOnUse">
<stop stop-color="#006AFF"/>
<stop offset="0.07" stop-color="#1C63FB"/>
<stop offset="0.29" stop-color="#6D50F2"/>
<stop offset="0.45" stop-color="#A144ED"/>
<stop offset="0.52" stop-color="#B540EB"/>
<stop offset="0.61" stop-color="#9858D9"/>
<stop offset="0.8" stop-color="#5098AC"/>
<stop offset="1" stop-color="#00DF7A"/>
</linearGradient>
<linearGradient id="paint3_linear_559_2465" x1="0.985134" y1="12.729" x2="30.4673" y2="12.5643" gradientUnits="userSpaceOnUse">
<stop stop-color="#006AFF"/>
<stop offset="0.07" stop-color="#1C63FB"/>
<stop offset="0.29" stop-color="#6D50F2"/>
<stop offset="0.45" stop-color="#A144ED"/>
<stop offset="0.52" stop-color="#B540EB"/>
<stop offset="0.61" stop-color="#9858D9"/>
<stop offset="0.8" stop-color="#5098AC"/>
<stop offset="1" stop-color="#00DF7A"/>
</linearGradient>
<linearGradient id="paint4_linear_559_2465" x1="-1.28373" y1="13.6316" x2="30.1943" y2="13.1844" gradientUnits="userSpaceOnUse">
<stop stop-color="#006AFF"/>
<stop offset="0.07" stop-color="#1C63FB"/>
<stop offset="0.29" stop-color="#6D50F2"/>
<stop offset="0.45" stop-color="#A144ED"/>
<stop offset="0.52" stop-color="#B540EB"/>
<stop offset="0.61" stop-color="#9858D9"/>
<stop offset="0.8" stop-color="#5098AC"/>
<stop offset="1" stop-color="#00DF7A"/>
</linearGradient>
<clipPath id="clip0_559_2465">
<rect width="33" height="26.965" fill="white"/>
</clipPath>
</defs>
</svg>
