<svg width="25" height="35" viewBox="0 0 25 35" fill="none" xmlns="http://www.w3.org/2000/svg">
<path d="M11.2875 8.76735C8.8676 8.76735 6.90283 6.79925 6.90283 4.38368C6.90283 1.9681 8.87139 0 11.2875 0C13.7037 0 15.6722 1.9681 15.6722 4.38368C15.6722 6.79925 13.7037 8.76735 11.2875 8.76735ZM11.2875 1.89226C9.91446 1.89226 8.79933 3.00714 8.79933 4.37989C8.79933 5.75263 9.91446 6.86751 11.2875 6.86751C12.6606 6.86751 13.7757 5.75263 13.7757 4.37989C13.7757 3.00714 12.6606 1.89226 11.2875 1.89226Z" fill="url(#paint0_linear_401_4164)"/>
<path d="M21.5555 27.5688C21.6693 28.7027 21.3811 29.8175 20.9145 30.8414C20.0497 32.7337 18.415 34.387 16.3819 34.9596C15.4109 35.2327 14.8799 34.0647 15.4602 33.3745C16.9698 31.5809 16.7764 29.0629 15.3237 27.3906C14.4096 28.5661 13.3172 29.5559 12.1527 30.4963C11.379 31.1258 10.6014 31.7515 9.74039 32.2597C8.83387 32.7981 7.86665 33.2342 6.87668 33.5945C5.01433 34.2733 2.99646 34.6601 1.01273 34.5956C0.97859 34.5994 0.944452 34.5956 0.910315 34.5956C0.466535 34.5804 0.182059 34.315 0.0606834 33.9926C0.0379255 33.9358 0.0227554 33.8789 0.0151694 33.8182C0.00758343 33.7879 0.00758389 33.7575 0.00379091 33.7272C-2.08347e-06 33.6969 0 33.6665 0 33.6362C0 33.2608 0.201027 32.8816 0.656185 32.7299C0.67515 32.7223 0.694113 32.7185 0.713078 32.7109C2.32131 32.1838 3.65644 31.2017 4.85123 30.0223C7.15357 27.7546 9.31937 25.1115 10.2904 21.9717C10.7152 20.5875 11.0376 18.9076 10.2828 17.5842C9.65316 16.4731 8.48112 15.6919 7.1915 15.673C5.97016 15.654 5.97016 13.758 7.1915 13.7769C9.17524 13.8073 11.0566 14.9904 11.9858 16.7423C12.9 18.4602 12.6989 20.5041 12.1679 22.3167C11.6141 24.2052 10.6204 26.0103 9.47867 27.6029C8.42043 29.0857 7.17254 30.4508 5.84879 31.6984C5.70465 31.8311 5.56431 31.9601 5.41639 32.0852C5.90948 31.9411 6.39119 31.7667 6.8691 31.5771C8.50767 30.9172 9.8959 29.9161 11.25 28.8012C12.4372 27.8153 13.5486 26.7573 14.383 25.4452C15.2288 24.1142 15.9571 22.6049 16.4502 21.1033C16.7081 20.3145 16.7347 19.8253 16.7005 18.9797C16.6702 18.1454 16.5678 17.2581 16.1999 16.4996C16.1771 16.4541 16.1581 16.4086 16.143 16.3593C16.143 16.3593 16.143 16.3518 16.1392 16.348C16.0254 15.9991 16.0861 15.6237 16.3402 15.362C16.3667 15.3317 16.3971 15.3013 16.4312 15.2748C19.0294 12.8365 20.9335 9.71936 21.9348 6.32542C20.3683 8.57414 18.4225 10.6598 15.9078 11.8467C13.4803 12.9957 10.609 13.4091 8.07527 12.3435C7.60115 12.1463 7.26357 11.7254 7.4115 11.1793C7.53667 10.7281 8.10561 10.3185 8.57974 10.5157C11.4093 11.7064 14.6371 10.8039 16.985 8.9761C19.5946 6.94732 21.2787 3.99707 22.8452 1.15299C23.2927 0.341474 24.6506 0.690346 24.6127 1.63079C24.3813 7.11039 22.0448 12.4193 18.1381 16.2645C18.7829 18.0506 18.798 20.1704 18.1684 21.9262C17.7019 23.2306 17.1178 24.5579 16.4047 25.7714C17.5388 26.8407 18.2215 28.3083 18.3922 29.863C18.4453 30.3826 18.4301 30.8983 18.3467 31.4064C18.6956 30.9703 18.9877 30.4887 19.2267 29.992C19.5453 29.3208 19.7539 28.4486 19.6666 27.6409C19.5642 26.7118 19.1242 25.8282 18.7449 24.9864C18.5363 24.5162 18.6046 23.9701 19.0863 23.6895C19.4922 23.4506 20.1749 23.5606 20.3835 24.027C20.8956 25.1722 21.4304 26.306 21.5555 27.5688Z" fill="url(#paint1_linear_401_4164)"/>
<defs>
<linearGradient id="paint0_linear_401_4164" x1="6.89904" y1="4.37988" x2="25.7198" y2="4.37988" gradientUnits="userSpaceOnUse">
<stop stop-color="#006AFF"/>
<stop offset="0.07" stop-color="#1C63FB"/>
<stop offset="0.29" stop-color="#6D50F2"/>
<stop offset="0.45" stop-color="#A144ED"/>
<stop offset="0.52" stop-color="#B540EB"/>
<stop offset="0.61" stop-color="#9858D9"/>
<stop offset="0.8" stop-color="#5098AC"/>
<stop offset="1" stop-color="#00DF7A"/>
</linearGradient>
<linearGradient id="paint1_linear_401_4164" x1="0" y1="17.8496" x2="24.6127" y2="17.8496" gradientUnits="userSpaceOnUse">
<stop stop-color="#006AFF"/>
<stop offset="0.07" stop-color="#1C63FB"/>
<stop offset="0.29" stop-color="#6D50F2"/>
<stop offset="0.45" stop-color="#A144ED"/>
<stop offset="0.52" stop-color="#B540EB"/>
<stop offset="0.61" stop-color="#9858D9"/>
<stop offset="0.8" stop-color="#5098AC"/>
<stop offset="1" stop-color="#00DF7A"/>
</linearGradient>
</defs>
</svg>
