<svg width="40" height="22" viewBox="0 0 40 22" fill="none" xmlns="http://www.w3.org/2000/svg">
<path d="M20.3622 5.70939C18.295 1.90189 13.8925 -0.470069 9.57243 0.0785753C5.0915 0.647845 1.22947 3.96033 0.259841 8.41549C-0.301307 10.9896 0.0494023 13.6915 1.2831 16.0223C1.90614 17.1979 3.68449 16.1543 3.06558 14.9827C1.31199 11.6661 1.8814 7.3677 4.54273 4.70286C7.05964 2.1824 10.9547 1.33262 14.2432 2.77642C16.0917 3.58907 17.6224 4.97512 18.5838 6.74893C19.2192 7.91635 20.9976 6.87681 20.3663 5.70939H20.3622Z" fill="url(#paint0_linear_401_4185)"/>
<path d="M12.4775 21.8061C16.4715 21.1997 19.2484 17.8254 21.2 14.5583C23.2466 11.1303 24.9672 7.15775 28.7673 5.33031C30.2733 4.60429 32.0929 4.45578 33.6237 5.19418C35.1586 5.93671 36.318 7.28976 37.0071 8.83256C38.4966 12.1574 37.6714 16.5012 34.6057 18.6422C33.0254 19.7436 31.0696 20.251 29.1799 19.7601C27.4469 19.3063 25.813 18.0894 25.1116 16.4022C24.897 15.8866 24.4266 15.5194 23.8407 15.6803C23.3538 15.8123 22.9041 16.4311 23.1187 16.9508C24.7567 20.8904 29.2872 22.9529 33.3472 21.571C37.6508 20.1066 40.2131 15.7133 39.7221 11.2458C39.2641 7.07112 36.2809 2.93773 31.8165 2.65722C27.1003 2.36021 23.6179 6.35335 21.4352 10.0206C19.1535 13.8529 16.9048 19.0629 11.9287 19.8178C11.3758 19.9003 11.0746 20.5933 11.2066 21.0884C11.3676 21.6783 11.9246 21.8928 12.4775 21.8103V21.8061Z" fill="url(#paint1_linear_401_4185)"/>
<path d="M4.15923 21.8549C2.19933 21.8549 0.602539 20.2585 0.602539 18.299C0.602539 16.3396 2.19933 14.7432 4.15923 14.7432C6.11912 14.7432 7.71593 16.3396 7.71593 18.299C7.71593 20.2585 6.11912 21.8549 4.15923 21.8549ZM4.15923 16.3932C3.1112 16.3932 2.25298 17.2471 2.25298 18.299C2.25298 19.3509 3.10707 20.2049 4.15923 20.2049C5.21138 20.2049 6.06549 19.3509 6.06549 18.299C6.06549 17.2471 5.21138 16.3932 4.15923 16.3932Z" fill="url(#paint2_linear_401_4185)"/>
<defs>
<linearGradient id="paint0_linear_401_4185" x1="0.812735" y1="8.27111" x2="38.9543" y2="8.27111" gradientUnits="userSpaceOnUse">
<stop stop-color="#006AFF"/>
<stop offset="0.07" stop-color="#1C63FB"/>
<stop offset="0.29" stop-color="#6D50F2"/>
<stop offset="0.45" stop-color="#A144ED"/>
<stop offset="0.52" stop-color="#B540EB"/>
<stop offset="0.61" stop-color="#9858D9"/>
<stop offset="0.8" stop-color="#5098AC"/>
<stop offset="1" stop-color="#00DF7A"/>
</linearGradient>
<linearGradient id="paint1_linear_401_4185" x1="0.367393" y1="12.3224" x2="38.6823" y2="12.3224" gradientUnits="userSpaceOnUse">
<stop stop-color="#006AFF"/>
<stop offset="0.07" stop-color="#1C63FB"/>
<stop offset="0.29" stop-color="#6D50F2"/>
<stop offset="0.45" stop-color="#A144ED"/>
<stop offset="0.52" stop-color="#B540EB"/>
<stop offset="0.61" stop-color="#9858D9"/>
<stop offset="0.8" stop-color="#5098AC"/>
<stop offset="1" stop-color="#00DF7A"/>
</linearGradient>
<linearGradient id="paint2_linear_401_4185" x1="0.606665" y1="18.299" x2="38.1748" y2="18.299" gradientUnits="userSpaceOnUse">
<stop stop-color="#006AFF"/>
<stop offset="0.07" stop-color="#1C63FB"/>
<stop offset="0.29" stop-color="#6D50F2"/>
<stop offset="0.45" stop-color="#A144ED"/>
<stop offset="0.52" stop-color="#B540EB"/>
<stop offset="0.61" stop-color="#9858D9"/>
<stop offset="0.8" stop-color="#5098AC"/>
<stop offset="1" stop-color="#00DF7A"/>
</linearGradient>
</defs>
</svg>
