<svg width="16" height="22" viewBox="0 0 16 22" fill="none" xmlns="http://www.w3.org/2000/svg">
<g clip-path="url(#clip0_492_2546)">
<path d="M6.9473 11.7945C7.13448 11.249 7.28423 10.5769 7.10774 10.0064C7.04 9.78715 6.85103 9.62671 6.61749 9.61423C6.3073 9.59997 6.13437 9.85668 5.95788 10.0706C5.8527 10.1972 5.75109 10.3255 5.65125 10.4575C5.82953 9.86381 6.0078 9.27194 6.18607 8.67829C6.35187 8.12208 6.55331 7.40543 5.93649 7.03997C5.74574 6.92587 5.52646 6.89735 5.32145 6.93657C5.3161 6.59428 5.23766 6.24843 5.04691 5.9632C4.81694 5.62091 4.3249 5.56565 4.05214 5.8901C3.9951 5.95785 3.95231 6.03985 3.91666 6.12542C3.68847 5.92932 3.35153 5.86158 3.06808 6.0149C2.86485 6.12543 2.71688 6.32509 2.62596 6.53367C2.5083 6.79751 2.52078 7.08453 2.48334 7.36799C2.40847 7.94738 2.2712 8.51785 2.12501 9.08297C1.9717 9.67662 1.80412 10.2685 1.66507 10.8657C1.65794 10.8978 1.65081 10.9281 1.64368 10.9602C1.52245 11.4986 1.4244 12.0459 1.38696 12.6003C1.34774 13.2029 1.39766 13.8001 1.5278 14.3902C1.65616 14.9731 1.85047 15.5525 1.89682 16.1515C1.96992 17.1284 1.45292 18.4976 0.335153 18.6384C0.155097 18.6598 0 18.7757 0 18.9718C0 19.1358 0.153315 19.3283 0.335153 19.3069C1.31031 19.1839 2.00022 18.469 2.35142 17.5812C2.77749 16.508 2.45838 15.4402 2.20702 14.3688C1.95209 13.276 2.04479 12.2099 2.29259 11.126C3.08769 10.0082 3.60111 8.70325 4.10919 7.43217C4.16446 7.29668 4.21794 7.16297 4.27142 7.02927C4.3356 6.86704 4.40156 6.70481 4.46752 6.54437C4.47822 6.52119 4.50318 6.47662 4.52457 6.43205C4.55131 6.49623 4.59944 6.57824 4.61192 6.62637C4.63331 6.70838 4.64758 6.7886 4.65293 6.87239C4.66897 7.09166 4.63331 7.30381 4.5727 7.51417C4.46039 7.91529 4.26429 8.28609 4.08423 8.65868C3.90774 9.02414 3.73125 9.38782 3.56189 9.75685C3.17682 10.6001 2.81315 11.4629 2.60457 12.3685C2.50652 12.7857 3.15187 12.9658 3.24813 12.545C3.46028 11.6323 3.82752 10.7641 4.2215 9.91729C4.41047 9.51083 4.60836 9.10615 4.80267 8.70147C4.92212 8.45367 5.04156 8.20231 5.13426 7.94203C5.16992 7.90459 5.19487 7.85646 5.21092 7.79763C5.24123 7.67818 5.3785 7.56587 5.50864 7.58191C5.71543 7.60509 5.71365 7.84041 5.68334 7.99551C5.58351 8.50715 5.38741 9.01345 5.23588 9.51261C4.9239 10.5537 4.61014 11.5948 4.29816 12.636C4.28747 12.6716 4.28212 12.7073 4.28212 12.7394C4.18407 12.9586 4.08958 13.1815 4.00223 13.4061C3.93627 13.5755 4.07532 13.7716 4.23577 13.8179C4.42474 13.8714 4.58162 13.7519 4.64758 13.5844C5.00947 12.6502 5.50329 11.766 6.1005 10.962C6.22351 10.7962 6.35365 10.6339 6.48914 10.4753C6.49805 10.5591 6.50875 10.6429 6.5034 10.7231C6.47487 11.2329 6.26986 11.7161 6.0898 12.1867C5.89549 12.6894 5.73504 13.1886 5.69582 13.7305C5.65482 14.2761 5.72435 14.8216 5.75109 15.3671C5.801 16.41 5.5532 17.3762 5.04334 18.2872C4.46039 19.3265 3.64212 20.1983 2.83454 21.0629C2.54039 21.3767 3.01281 21.8491 3.30696 21.5353C4.13415 20.6493 4.9756 19.7508 5.58173 18.6919C6.16824 17.665 6.47666 16.5508 6.41961 15.3671C6.3893 14.7574 6.29838 14.137 6.38396 13.5273C6.46953 12.923 6.7512 12.3668 6.9473 11.7945ZM3.4888 7.1915C3.4888 7.1915 3.48702 7.19506 3.48702 7.19685C3.34262 7.55517 3.19643 7.91172 3.0449 8.26648C3.01994 8.32353 2.64557 9.23985 2.62061 9.2969C2.66518 9.08476 2.96825 7.85289 2.99499 7.71919C3.05382 7.4286 3.13404 7.18971 3.19822 6.9027C3.23031 6.76008 3.30696 6.60498 3.4585 6.61033C3.50128 6.61211 3.5298 6.69768 3.53694 6.80286C3.54763 6.96153 3.53159 7.04531 3.4888 7.1915ZM4.50318 6.334C4.48535 6.33222 4.49783 6.31083 4.50318 6.334V6.334Z" fill="url(#paint0_linear_492_2546)"/>
<path d="M1.66495 10.8657C1.65782 10.8978 1.65069 10.9281 1.64355 10.9602C1.64355 10.9281 1.65069 10.896 1.66495 10.8657Z" fill="url(#paint1_linear_492_2546)"/>
<path d="M15.7506 11.7571C15.0678 11.5503 14.3779 11.8052 13.8912 12.3044C13.6755 12.5272 13.5168 12.7982 13.335 13.0478C13.3582 12.3917 13.3831 11.7339 13.4081 11.0779C13.4241 10.625 13.4402 10.1722 13.458 9.71942C13.4723 9.33256 13.5329 8.9154 13.4634 8.53033C13.3956 8.16487 13.1032 7.89568 12.7271 7.89568C12.6736 7.89568 12.6201 7.90281 12.5684 7.91351C12.5666 7.74059 12.5453 7.56944 12.5078 7.41078C12.3759 6.83674 11.7609 6.35719 11.185 6.68164C10.8249 6.88487 10.6663 7.28955 10.5736 7.70493C10.2348 7.57836 9.78915 7.66393 9.54314 7.90281C9.19907 8.23975 9.09389 8.7924 9.03149 9.28086C8.75695 9.27195 8.49311 9.39318 8.30058 9.62493C8.01712 9.969 8.00108 10.4272 7.97434 10.8514C7.91016 11.8819 7.84598 12.9105 7.78358 13.9409C7.72119 14.941 7.62849 15.9501 7.80141 16.9448C7.94938 17.8059 8.33445 18.6135 8.82292 19.3319C9.37734 20.1502 10.0566 20.8757 10.7393 21.5888C11.0371 21.9008 11.5095 21.4284 11.2118 21.1164C10.1796 20.0361 9.0725 18.8862 8.6072 17.4297C8.34871 16.6168 8.34693 15.77 8.39149 14.925C8.43963 14.0318 8.50024 13.1369 8.55551 12.2438C8.58759 11.7357 8.6179 11.2294 8.64999 10.7213C8.66247 10.5288 8.6696 10.3166 8.75695 10.1401C8.78726 10.0813 8.87283 9.97256 8.9584 9.93869C8.87283 10.9923 8.96019 12.053 9.02258 13.1048C9.0208 13.1048 9.01902 13.1066 9.01723 13.1066C8.85144 13.1797 8.81578 13.4204 8.89779 13.563C8.99584 13.7359 9.19016 13.7555 9.35595 13.6842C10.1867 13.3223 11.0282 12.9854 11.8589 12.6235C11.9623 12.5789 12.0247 12.4434 12.0247 12.3365C12.0229 11.3167 11.9997 10.2952 12.2671 9.30404C12.2975 9.18994 12.3242 9.06515 12.367 8.94928C12.3688 8.94749 12.3705 8.94749 12.3688 8.94571C12.3812 8.91006 12.3973 8.8744 12.4151 8.84053C12.4508 8.76387 12.5007 8.69613 12.5666 8.64086C12.8144 8.43407 12.8234 8.70326 12.8198 8.90114C12.802 9.65524 12.7627 10.4111 12.736 11.167C12.7039 12.0281 12.6718 12.8891 12.6397 13.7519C12.638 13.7858 12.6415 13.8161 12.6487 13.8429C12.6237 13.8696 12.597 13.8928 12.572 13.9177C12.0425 14.4133 11.3526 14.6647 10.791 15.1175C10.2509 15.5525 9.88899 16.1996 10.0191 16.9056C10.0976 17.3281 10.7429 17.1481 10.6645 16.7273C10.5629 16.18 11.0602 15.713 11.4721 15.4473C12.0104 15.0997 12.5738 14.8323 13.0462 14.3902C13.5026 13.9587 13.8431 13.4525 14.2139 12.9515C14.4349 12.6556 14.7416 12.4292 15.0856 12.3686C14.8236 12.8338 14.615 13.3312 14.4546 13.8375C14.344 14.1869 14.287 14.547 14.1907 14.9C14.1105 15.196 14 15.4794 13.8787 15.7593C13.745 16.0695 13.6399 16.4029 13.4794 16.6988C13.3243 16.984 13.1157 17.2372 12.9357 17.5046C12.5631 18.059 12.4133 18.6527 12.67 19.2891C12.9375 19.9505 13.4901 20.5192 14.1782 20.7385C14.5883 20.8686 14.7648 20.2233 14.3547 20.0931C13.8716 19.9398 13.4562 19.4959 13.2815 19.0253C13.0712 18.4619 13.3671 18.0394 13.688 17.5919C13.8538 17.3602 14.0231 17.1302 14.139 16.8682C14.2674 16.5758 14.3797 16.2745 14.5063 15.9786C14.6186 15.7165 14.7273 15.4527 14.8075 15.1781C14.8985 14.8644 14.9484 14.5399 15.0357 14.2262C15.2336 13.5255 15.5367 12.8481 15.9503 12.2473C16.0768 12.0637 15.9431 11.8159 15.7506 11.7571ZM10.1778 10.4503C10.1243 11.1706 10.1136 11.8979 10.1671 12.6199C10.0031 12.6877 9.83907 12.7572 9.67506 12.8249C9.62158 11.9674 9.56631 11.1064 9.6091 10.2471C9.63227 9.76042 9.68576 9.27373 9.81411 8.80487C9.8569 8.65334 9.91216 8.42515 10.0583 8.35206C10.1457 8.30749 10.3204 8.28967 10.3882 8.36632C10.406 8.38593 10.4238 8.40198 10.4416 8.41624C10.3168 9.08833 10.2313 9.76755 10.1778 10.4503ZM11.5701 9.33256C11.5077 9.58928 11.4631 9.84955 11.431 10.1116C11.3473 10.7766 11.3526 11.4487 11.3562 12.119C11.1779 12.1956 10.9978 12.2723 10.8178 12.3472C10.75 11.0957 10.8588 9.82994 11.0852 8.59808C11.1209 8.40198 11.3241 6.92231 11.7216 7.3163C11.891 7.48387 11.8999 7.74772 11.8946 7.97234C11.8874 8.17557 11.8714 8.37345 11.8054 8.56064C11.7894 8.60699 11.7698 8.65334 11.7448 8.69791C11.7127 8.78526 11.6842 8.87618 11.661 8.96532C11.6271 9.08833 11.5986 9.21312 11.5701 9.33256Z" fill="url(#paint2_linear_492_2546)"/>
<path d="M11.7073 8.77109C11.7216 8.74791 11.734 8.72296 11.7447 8.698C11.7126 8.78535 11.6841 8.87627 11.6609 8.96541C11.6538 8.90479 11.6681 8.83883 11.7073 8.77109Z" fill="url(#paint3_linear_492_2546)"/>
<path d="M6.19155 3.51364C5.87779 2.7649 5.56403 2.01793 5.25027 1.26919C5.16113 1.05704 4.86341 0.987517 4.69049 1.10874C4.48904 1.24958 4.44804 1.49025 4.54431 1.71844C4.85807 2.46718 5.17183 3.21415 5.48559 3.96289C5.57472 4.17504 5.87244 4.24456 6.04536 4.12334C6.24681 3.9825 6.28782 3.74183 6.19155 3.51364Z" fill="url(#paint4_linear_492_2546)"/>
<path d="M8.82622 2.65793C8.82622 1.91988 8.82622 1.18361 8.82622 0.445564C8.82622 0.212027 8.64617 -0.0108145 8.43402 -0.000118127C8.22188 0.0105783 8.04004 0.195982 8.04004 0.445564C8.04004 1.18361 8.04004 1.91988 8.04004 2.65793C8.04004 2.89147 8.22188 3.11431 8.43402 3.10361C8.64617 3.09292 8.82801 2.90751 8.82801 2.65793H8.82622Z" fill="url(#paint5_linear_492_2546)"/>
<path d="M11.0137 3.94334C11.3685 3.27125 11.7215 2.59738 12.0762 1.92529C12.1761 1.73454 12.1226 1.45643 11.939 1.34947C11.7553 1.24251 11.5218 1.29599 11.4148 1.501C11.0601 2.17309 10.7071 2.84696 10.3523 3.51905C10.2525 3.70981 10.306 3.98791 10.4896 4.09488C10.6732 4.20184 10.9067 4.14836 11.0137 3.94334Z" fill="url(#paint6_linear_492_2546)"/>
</g>
<defs>
<linearGradient id="paint0_linear_492_2546" x1="0" y1="13.6575" x2="15.4188" y2="13.6575" gradientUnits="userSpaceOnUse">
<stop stop-color="#006AFF"/>
<stop offset="0.07" stop-color="#1C63FB"/>
<stop offset="0.29" stop-color="#6D50F2"/>
<stop offset="0.45" stop-color="#A144ED"/>
<stop offset="0.52" stop-color="#B540EB"/>
<stop offset="0.61" stop-color="#9858D9"/>
<stop offset="0.8" stop-color="#5098AC"/>
<stop offset="1" stop-color="#00DF7A"/>
</linearGradient>
<linearGradient id="paint1_linear_492_2546" x1="1.64534" y1="10.9139" x2="1.66316" y2="10.9139" gradientUnits="userSpaceOnUse">
<stop stop-color="#006AFF"/>
<stop offset="0.07" stop-color="#1C63FB"/>
<stop offset="0.29" stop-color="#6D50F2"/>
<stop offset="0.45" stop-color="#A144ED"/>
<stop offset="0.52" stop-color="#B540EB"/>
<stop offset="0.61" stop-color="#9858D9"/>
<stop offset="0.8" stop-color="#5098AC"/>
<stop offset="1" stop-color="#00DF7A"/>
</linearGradient>
<linearGradient id="paint2_linear_492_2546" x1="0.16063" y1="14.1352" x2="15.2657" y2="14.1352" gradientUnits="userSpaceOnUse">
<stop stop-color="#006AFF"/>
<stop offset="0.07" stop-color="#1C63FB"/>
<stop offset="0.29" stop-color="#6D50F2"/>
<stop offset="0.45" stop-color="#A144ED"/>
<stop offset="0.52" stop-color="#B540EB"/>
<stop offset="0.61" stop-color="#9858D9"/>
<stop offset="0.8" stop-color="#5098AC"/>
<stop offset="1" stop-color="#00DF7A"/>
</linearGradient>
<linearGradient id="paint3_linear_492_2546" x1="11.6681" y1="8.8317" x2="11.7358" y2="8.8317" gradientUnits="userSpaceOnUse">
<stop stop-color="#006AFF"/>
<stop offset="0.07" stop-color="#1C63FB"/>
<stop offset="0.29" stop-color="#6D50F2"/>
<stop offset="0.45" stop-color="#A144ED"/>
<stop offset="0.52" stop-color="#B540EB"/>
<stop offset="0.61" stop-color="#9858D9"/>
<stop offset="0.8" stop-color="#5098AC"/>
<stop offset="1" stop-color="#00DF7A"/>
</linearGradient>
<linearGradient id="paint4_linear_492_2546" x1="-0.89302" y1="2.61515" x2="16.9271" y2="2.61515" gradientUnits="userSpaceOnUse">
<stop stop-color="#006AFF"/>
<stop offset="0.07" stop-color="#1C63FB"/>
<stop offset="0.29" stop-color="#6D50F2"/>
<stop offset="0.45" stop-color="#A144ED"/>
<stop offset="0.52" stop-color="#B540EB"/>
<stop offset="0.61" stop-color="#9858D9"/>
<stop offset="0.8" stop-color="#5098AC"/>
<stop offset="0.99" stop-color="#00DF7A"/>
</linearGradient>
<linearGradient id="paint5_linear_492_2546" x1="-0.477848" y1="1.55264" x2="18.92" y2="1.55264" gradientUnits="userSpaceOnUse">
<stop stop-color="#006AFF"/>
<stop offset="0.07" stop-color="#1C63FB"/>
<stop offset="0.29" stop-color="#6D50F2"/>
<stop offset="0.45" stop-color="#A144ED"/>
<stop offset="0.52" stop-color="#B540EB"/>
<stop offset="0.61" stop-color="#9858D9"/>
<stop offset="0.8" stop-color="#5098AC"/>
<stop offset="1" stop-color="#00DF7A"/>
</linearGradient>
<linearGradient id="paint6_linear_492_2546" x1="2.08224" y1="2.72039" x2="15.4741" y2="2.72039" gradientUnits="userSpaceOnUse">
<stop offset="0.09" stop-color="#006AFF"/>
<stop offset="0.15" stop-color="#1C63FB"/>
<stop offset="0.33" stop-color="#6D50F2"/>
<stop offset="0.46" stop-color="#A144ED"/>
<stop offset="0.52" stop-color="#B540EB"/>
<stop offset="0.61" stop-color="#9858D9"/>
<stop offset="0.8" stop-color="#5098AC"/>
<stop offset="1" stop-color="#00DF7A"/>
</linearGradient>
<clipPath id="clip0_492_2546">
<rect width="16" height="21.6923" fill="white"/>
</clipPath>
</defs>
</svg>
