<svg width="1512" height="328" viewBox="0 0 1512 328" fill="none" xmlns="http://www.w3.org/2000/svg">
<g opacity="0.3">
<path d="M-400.435 168.392C-314.858 206.919 -220.146 222.803 -126.616 213.107C-80.9375 208.355 -35.8974 198.212 7.03448 181.787C52.7454 164.277 94.7828 139.655 136.565 114.459C214.219 67.575 305.481 13.2278 400.097 37.3715C473.631 56.1251 509.759 124.633 545.12 185.2C579.555 244.203 620.921 306.428 691.995 322.981C777.955 343.011 863.403 291.885 923.68 235.177C985.427 177.099 1034.33 102.786 1110.04 61.0048C1198.14 12.3986 1301.67 34.501 1390.56 68.9783C1481.6 104.285 1568.58 154.677 1666.75 167.881C1741.11 177.896 1822.98 163.926 1881.5 114.459C1895.84 102.339 1907.92 87.8595 1918.11 72.1358C1929.32 54.8493 1901.66 38.8386 1890.54 56.0294C1848.57 120.774 1766.79 142.685 1693.42 138.571C1598.55 133.276 1511.37 84.7658 1425.48 48.8852C1339.58 13.0046 1244.2 -14.7431 1152.27 9.75138C1069.63 31.7582 1010.44 95.7692 954.729 156.623C898.828 217.668 831.843 287.42 743.967 294.915C665.163 301.612 617.44 244.14 580.896 182.967C547.132 126.451 516.307 62.8866 458.106 27.293C383.263 -18.5066 288.487 -0.231402 213.516 34.9795C126.215 75.9631 51.244 137.933 -42.7652 164.788C-136.774 191.642 -229.378 190.43 -319.235 164.66C-341.467 158.281 -363.221 150.34 -384.303 140.835C-402.894 132.447 -419.153 159.94 -400.435 168.36V168.392Z" fill="url(#paint0_linear_563_2691)"/>
</g>
<defs>
<linearGradient id="paint0_linear_563_2691" x1="46.1109" y1="157.723" x2="1472.56" y2="172.979" gradientUnits="userSpaceOnUse">
<stop stop-color="#006AFF"/>
<stop offset="0.5" stop-color="#B540EB"/>
<stop offset="1" stop-color="#00DF7A"/>
</linearGradient>
</defs>
</svg>
