<svg width="35" height="35" viewBox="0 0 35 35" fill="none" xmlns="http://www.w3.org/2000/svg">
<g clip-path="url(#clip0_401_4171)">
<path d="M10.5249 4.70366C8.86126 5.32821 7.42255 6.49232 6.57376 8.07705C5.65706 9.79349 5.46608 11.8583 6.06024 13.7149C6.23424 14.263 6.79869 14.6114 7.36738 14.4585C7.90212 14.3098 8.28408 13.7022 8.11008 13.1499C7.68568 11.8201 7.74934 10.3883 8.4114 9.1477C8.73394 8.54015 9.04375 8.15778 9.55303 7.69468C9.80342 7.4695 9.9562 7.35479 10.283 7.15511C10.4188 7.07438 10.5546 6.99791 10.6947 6.92568C10.8729 6.83646 10.9875 6.78973 11.0893 6.75149C11.6241 6.5518 11.9933 6.03347 11.832 5.44292C11.692 4.92884 11.0681 4.49973 10.5249 4.69941V4.70366Z" fill="url(#paint0_linear_401_4171)"/>
<path d="M26.7369 20.7208C28.1756 19.6204 29.2578 18.0739 29.5888 16.264C29.9199 14.4541 29.5549 12.402 28.4684 10.8173C28.1459 10.3457 27.5347 10.1333 27.017 10.4349C26.5501 10.7111 26.3125 11.4121 26.635 11.888C28.1629 14.1227 27.8148 17.237 25.6632 18.8854C25.2091 19.2338 24.9671 19.7989 25.2812 20.3384C25.5443 20.7845 26.2743 21.0692 26.7326 20.7208H26.7369Z" fill="url(#paint1_linear_401_4171)"/>
<path d="M7.06194 0.165413C4.36278 1.85636 2.26626 4.34604 1.06522 7.29457C-0.26739 10.5575 -0.335293 14.3048 0.793602 17.6357C1.23073 18.923 3.28057 18.3707 2.83919 17.0706C1.84186 14.1263 1.88006 10.9101 3.05139 8.01683C4.05297 5.5399 5.88212 3.4156 8.13991 2.00506C9.29427 1.2828 8.23328 -0.556849 7.07043 0.169662L7.06194 0.165413Z" fill="url(#paint2_linear_401_4171)"/>
<path d="M33.3532 20.8906C34.9277 17.7636 35.4115 14.1778 34.6391 10.7534C33.9346 7.63072 32.1564 4.74167 29.7118 2.68959C29.2747 2.31996 28.6424 2.26048 28.2095 2.68959C27.8318 3.06771 27.7681 3.81972 28.2095 4.1936C30.3612 5.99925 31.9017 8.41671 32.5553 11.1571C33.2471 14.0504 32.8566 17.1688 31.5198 19.82C30.9086 21.0393 32.7378 22.1142 33.3532 20.8906Z" fill="url(#paint3_linear_401_4171)"/>
<path d="M17.1161 21.264C13.2881 21.264 10.1772 18.1498 10.1772 14.3176C10.1772 10.4853 13.2881 7.37109 17.1161 7.37109C20.9442 7.37109 24.055 10.4853 24.055 14.3176C24.055 18.1498 20.9442 21.264 17.1161 21.264ZM17.1161 9.4954C14.4594 9.4954 12.2992 11.6579 12.2992 14.3176C12.2992 16.9772 14.4594 19.1397 17.1161 19.1397C19.7729 19.1397 21.933 16.9772 21.933 14.3176C21.933 11.6579 19.7729 9.4954 17.1161 9.4954Z" fill="url(#paint4_linear_401_4171)"/>
<path d="M30.5951 23.941C29.9755 23.941 29.5936 24.4296 29.5341 25.0032C29.3898 26.4604 28.8551 27.854 28.0318 29.0563C27.9511 29.1243 27.8747 29.2093 27.8111 29.3028C27.6074 29.5959 27.3697 29.8551 27.0599 30.0038C27.0429 30.0038 26.8138 30.0802 26.7713 30.0972C26.7501 30.0972 26.3809 30.0972 26.3512 30.093C25.7018 29.9995 24.9507 29.5194 24.3523 29.0648C22.8796 27.956 21.6573 26.5412 20.2271 25.377C18.5635 24.026 16.6749 22.8364 14.5147 22.5177C12.6092 22.2373 10.657 22.8236 9.10792 23.9495C7.36365 25.2241 5.96315 27.0935 5.6109 29.2645C5.60665 29.2773 5.60665 29.29 5.60665 29.307L5.59392 29.3835C5.56846 29.7234 5.66182 30.0633 5.88675 30.2969C5.90373 30.3139 5.92071 30.3309 5.94193 30.3437C6.1711 30.5349 6.48091 30.6113 6.79496 30.5858L6.87135 30.5731C6.87135 30.5731 6.90106 30.5731 6.91804 30.5688C8.98485 30.2162 11.0262 31.2444 12.7747 32.2173C14.6081 33.2327 16.4415 34.3671 18.521 34.7835C22.4679 35.5779 26.7034 34.1674 29.2286 30.9895C30.6121 29.2518 31.4354 27.2124 31.6561 25.0032C31.7155 24.4296 31.1299 23.941 30.5951 23.941ZM23.6605 32.4085C21.9969 32.9608 20.2017 33.0543 18.5041 32.5997C16.6197 32.0941 14.9816 30.981 13.2755 30.0675C11.6373 29.1923 9.8973 28.5083 8.0724 28.419C9.21402 25.8019 12.1636 23.975 15.0113 24.795C16.9847 25.3643 18.6314 26.7196 20.1083 28.0877C21.4154 29.2985 22.6674 30.6538 24.2377 31.529C24.4584 31.6522 24.6875 31.7669 24.9209 31.8647C24.5178 32.0813 24.0976 32.264 23.6605 32.4085Z" fill="url(#paint5_linear_401_4171)"/>
<path d="M5.88652 30.2972C5.7592 30.1825 5.66583 30.0253 5.61066 29.8299C5.57247 29.6897 5.56822 29.5367 5.59369 29.3838C5.56822 29.7237 5.66159 30.0636 5.88652 30.2972Z" fill="url(#paint6_linear_401_4171)"/>
<path d="M6.79493 30.5859C6.64639 30.6114 6.49361 30.6072 6.35356 30.5689C6.18804 30.5222 6.05224 30.45 5.94189 30.3438C6.17107 30.5349 6.48088 30.6114 6.79493 30.5859Z" fill="url(#paint7_linear_401_4171)"/>
</g>
<defs>
<linearGradient id="paint0_linear_401_4171" x1="0.929283" y1="9.57256" x2="35.4922" y2="9.57256" gradientUnits="userSpaceOnUse">
<stop stop-color="#006AFF"/>
<stop offset="0.07" stop-color="#1C63FB"/>
<stop offset="0.29" stop-color="#6D50F2"/>
<stop offset="0.45" stop-color="#A144ED"/>
<stop offset="0.52" stop-color="#B540EB"/>
<stop offset="0.6" stop-color="#9858D9"/>
<stop offset="0.76" stop-color="#5098AC"/>
<stop offset="0.92" stop-color="#00DF7A"/>
</linearGradient>
<linearGradient id="paint1_linear_401_4171" x1="-0.178366" y1="15.5885" x2="34.5967" y2="15.5885" gradientUnits="userSpaceOnUse">
<stop stop-color="#006AFF"/>
<stop offset="0.07" stop-color="#1C63FB"/>
<stop offset="0.29" stop-color="#6D50F2"/>
<stop offset="0.45" stop-color="#A144ED"/>
<stop offset="0.52" stop-color="#B540EB"/>
<stop offset="0.61" stop-color="#9858D9"/>
<stop offset="0.8" stop-color="#5098AC"/>
<stop offset="1" stop-color="#00DF7A"/>
</linearGradient>
<linearGradient id="paint2_linear_401_4171" x1="0.84453" y1="9.18095" x2="36.0185" y2="9.18095" gradientUnits="userSpaceOnUse">
<stop stop-color="#006AFF"/>
<stop offset="0.07" stop-color="#1C63FB"/>
<stop offset="0.29" stop-color="#6D50F2"/>
<stop offset="0.45" stop-color="#A144ED"/>
<stop offset="0.52" stop-color="#B540EB"/>
<stop offset="0.61" stop-color="#9858D9"/>
<stop offset="0.8" stop-color="#5098AC"/>
<stop offset="1" stop-color="#00DF7A"/>
</linearGradient>
<linearGradient id="paint3_linear_401_4171" x1="-0.848969" y1="11.9091" x2="35.5431" y2="11.9091" gradientUnits="userSpaceOnUse">
<stop stop-color="#006AFF"/>
<stop offset="0.07" stop-color="#1C63FB"/>
<stop offset="0.29" stop-color="#6D50F2"/>
<stop offset="0.45" stop-color="#A144ED"/>
<stop offset="0.52" stop-color="#B540EB"/>
<stop offset="0.61" stop-color="#9858D9"/>
<stop offset="0.8" stop-color="#5098AC"/>
<stop offset="1" stop-color="#00DF7A"/>
</linearGradient>
<linearGradient id="paint4_linear_401_4171" x1="0.938129" y1="14.3176" x2="33.9986" y2="14.3176" gradientUnits="userSpaceOnUse">
<stop stop-color="#006AFF"/>
<stop offset="0.07" stop-color="#1C63FB"/>
<stop offset="0.27" stop-color="#6D50F2"/>
<stop offset="0.42" stop-color="#A144ED"/>
<stop offset="0.49" stop-color="#B540EB"/>
<stop offset="0.59" stop-color="#9858D9"/>
<stop offset="0.79" stop-color="#5098AC"/>
<stop offset="1" stop-color="#00DF7A"/>
</linearGradient>
<linearGradient id="paint5_linear_401_4171" x1="5.58968" y1="28.7207" x2="31.6604" y2="28.7207" gradientUnits="userSpaceOnUse">
<stop stop-color="#006AFF"/>
<stop offset="0.07" stop-color="#1C63FB"/>
<stop offset="0.29" stop-color="#6D50F2"/>
<stop offset="0.45" stop-color="#A144ED"/>
<stop offset="0.52" stop-color="#B540EB"/>
<stop offset="0.61" stop-color="#9858D9"/>
<stop offset="0.8" stop-color="#5098AC"/>
<stop offset="1" stop-color="#00DF7A"/>
</linearGradient>
<linearGradient id="paint6_linear_401_4171" x1="5.58944" y1="29.8384" x2="5.87379" y2="29.8384" gradientUnits="userSpaceOnUse">
<stop stop-color="#006AFF"/>
<stop offset="0.07" stop-color="#1C63FB"/>
<stop offset="0.29" stop-color="#6D50F2"/>
<stop offset="0.45" stop-color="#A144ED"/>
<stop offset="0.52" stop-color="#B540EB"/>
<stop offset="0.61" stop-color="#9858D9"/>
<stop offset="0.8" stop-color="#5098AC"/>
<stop offset="1" stop-color="#00DF7A"/>
</linearGradient>
<linearGradient id="paint7_linear_401_4171" x1="5.9716" y1="30.4712" x2="6.76098" y2="30.4712" gradientUnits="userSpaceOnUse">
<stop stop-color="#006AFF"/>
<stop offset="0.07" stop-color="#1C63FB"/>
<stop offset="0.29" stop-color="#6D50F2"/>
<stop offset="0.45" stop-color="#A144ED"/>
<stop offset="0.52" stop-color="#B540EB"/>
<stop offset="0.61" stop-color="#9858D9"/>
<stop offset="0.8" stop-color="#5098AC"/>
<stop offset="1" stop-color="#00DF7A"/>
</linearGradient>
<clipPath id="clip0_401_4171">
<rect width="35" height="35" fill="white"/>
</clipPath>
</defs>
</svg>
