<svg width="38" height="34" viewBox="0 0 38 34" fill="none" xmlns="http://www.w3.org/2000/svg">
<path d="M7.98099 13.441C7.9455 14.6033 9.75096 14.5988 9.78645 13.441C9.93728 8.6634 13.1578 4.2451 17.6471 2.6082C21.8835 1.06446 26.6922 1.79197 30.2632 4.5645C33.4838 7.07086 35.276 11.0278 35.2671 15.0868C35.2582 18.7288 33.7189 22.2022 30.9153 24.5045C29.8241 19.8156 24.1947 17.3714 19.7498 19.0881C19.2929 19.2611 18.9779 19.687 19.1154 20.1971C19.2352 20.6363 19.772 21.0045 20.2289 20.8315C22.2739 20.0418 24.5807 20.2282 26.4882 21.3372C27.9698 22.2022 29.1099 23.7415 29.274 25.476C29.274 25.5292 29.2873 25.5825 29.3006 25.6313C26.3418 27.3835 22.7441 27.9957 19.4082 27.0109C18.2903 26.6782 17.8157 28.4215 18.9291 28.7542C19.4348 28.9006 19.9494 29.0248 20.4729 29.1091C24.8424 29.8145 29.3938 28.3639 32.6498 25.3828C35.9724 22.3442 37.4984 17.7662 36.975 13.3257C36.4205 8.59242 33.7943 4.36931 29.6333 1.97828C25.2239 -0.563571 19.6345 -0.678906 15.1585 1.76535C10.9354 4.06766 8.14068 8.63235 7.98542 13.4366L7.98099 13.441Z" fill="url(#paint0_linear_493_2608)"/>
<path d="M16.5764 10.899C16.4655 9.45288 16.9224 8.04665 17.8628 6.94651C18.8077 5.84194 20.1208 5.1721 21.5714 5.0612C24.5657 4.82165 27.1785 7.07073 27.4136 10.0562C27.6488 13.0416 25.4085 15.6633 22.4187 15.8985C22.2767 15.9118 22.1347 15.9162 21.9928 15.9162C19.1848 15.9162 16.8026 13.7514 16.5808 10.9035L16.5764 10.899ZM21.7133 6.86223C20.7463 6.93765 19.8679 7.38569 19.238 8.12207C18.6081 8.85845 18.302 9.79446 18.3774 10.7615C18.5327 12.7533 20.276 14.2482 22.2767 14.0974C24.2729 13.9422 25.7679 12.1944 25.6126 10.1981C25.4662 8.29951 23.8737 6.85336 21.9972 6.85336C21.9041 6.85336 21.8065 6.85336 21.7133 6.86223Z" fill="url(#paint1_linear_493_2608)"/>
<path d="M10.5229 27.9335C9.649 29.4994 8.77066 31.0609 7.89676 32.6268C7.5197 33.3056 6.57482 33.1148 6.35302 32.4184C5.87837 30.9411 5.39927 29.4684 4.92462 27.9912L5.74085 28.6344C4.25921 28.4348 2.67998 28.3727 1.53548 27.2415C0.390979 26.1103 0.0183488 24.4911 0.000604634 22.9829C-0.0127035 21.7719 0.191352 20.3568 0.84345 19.3143C1.69517 17.9613 2.97719 16.9277 4.44996 16.3954C5.62107 15.9739 6.87647 15.9163 8.10526 15.8675C9.73329 15.8009 11.4057 15.7876 12.9805 16.2889C14.5553 16.7902 15.9216 17.7705 16.7334 19.2522C17.4786 20.614 17.7359 22.2155 17.4875 23.7548C16.9285 27.2371 13.2111 29.5615 9.96396 28.4304C8.93923 28.071 9.3784 26.3853 10.412 26.7447C12.5147 27.4766 15.0033 26.2611 15.682 24.0475C16.4007 21.7053 15.2828 19.1501 13.1047 18.1831C11.8271 17.6153 10.3854 17.5532 9.01465 17.5842C8.00767 17.6064 6.88091 17.6197 5.96265 17.7927C4.83146 18.0101 3.8156 18.4936 2.99937 19.3365C2.18314 20.1793 1.91697 20.8137 1.75284 21.9227C1.57983 23.0894 1.71292 24.4911 2.36945 25.5469C3.1014 26.718 4.53424 26.7225 5.74085 26.8866C6.13565 26.9398 6.42843 27.1262 6.55708 27.5298C7.03173 29.007 7.51083 30.4798 7.98548 31.957L6.44174 31.7485C7.31564 30.1826 8.19398 28.6211 9.06788 27.0552C9.61351 26.0837 11.073 26.962 10.5273 27.938L10.5229 27.9335Z" fill="url(#paint2_linear_493_2608)"/>
<defs>
<linearGradient id="paint0_linear_493_2608" x1="-0.101485" y1="14.5323" x2="37.7646" y2="14.7275" gradientUnits="userSpaceOnUse">
<stop stop-color="#006AFF"/>
<stop offset="0.07" stop-color="#1C63FB"/>
<stop offset="0.29" stop-color="#6D50F2"/>
<stop offset="0.45" stop-color="#A144ED"/>
<stop offset="0.52" stop-color="#B540EB"/>
<stop offset="0.6" stop-color="#9D54DC"/>
<stop offset="0.76" stop-color="#608AB6"/>
<stop offset="1" stop-color="#00DF7A"/>
</linearGradient>
<linearGradient id="paint1_linear_493_2608" x1="36.3898" y1="10.3438" x2="9.15202" y2="10.6043" gradientUnits="userSpaceOnUse">
<stop stop-color="#006AFF"/>
<stop offset="0.07" stop-color="#1C63FB"/>
<stop offset="0.29" stop-color="#6D50F2"/>
<stop offset="0.45" stop-color="#A144ED"/>
<stop offset="0.52" stop-color="#B540EB"/>
<stop offset="0.61" stop-color="#9858D9"/>
<stop offset="0.8" stop-color="#5098AC"/>
<stop offset="1" stop-color="#00DF7A"/>
</linearGradient>
<linearGradient id="paint2_linear_493_2608" x1="0.0627092" y1="24.4335" x2="35.0498" y2="24.4557" gradientUnits="userSpaceOnUse">
<stop stop-color="#006AFF"/>
<stop offset="0.07" stop-color="#1C63FB"/>
<stop offset="0.29" stop-color="#6D50F2"/>
<stop offset="0.45" stop-color="#A144ED"/>
<stop offset="0.52" stop-color="#B540EB"/>
<stop offset="0.61" stop-color="#9858D9"/>
<stop offset="0.8" stop-color="#5098AC"/>
<stop offset="1" stop-color="#00DF7A"/>
</linearGradient>
</defs>
</svg>
