<svg width="64" height="64" viewBox="0 0 64 64" fill="none" xmlns="http://www.w3.org/2000/svg">
<rect width="64" height="64" rx="20" fill="#A4C9FF" fill-opacity="0.2"/>
<path d="M37 23C38.6569 23 40 24.3431 40 26V38C40 39.6569 38.6569 41 37 41H27C25.3431 41 24 39.6569 24 38V26C24 24.3431 25.3431 23 27 23H37ZM26 38C26 38.5523 26.4477 39 27 39H37C37.5523 39 38 38.5523 38 38V36H35.0947C35.0164 36.0001 34.9404 36.0266 34.8789 36.0752C33.1862 37.4186 30.7793 37.3907 29.1006 36.0586C29.0523 36.0203 28.9914 36 28.9365 36H26V38ZM27 25C26.4477 25 26 25.4477 26 26V34H28.9365C29.4497 34 29.9472 34.1774 30.3438 34.4922C31.3084 35.2576 32.6842 35.263 33.6348 34.5088C34.0499 34.1793 34.5647 34.0001 35.0947 34H38V26C38 25.4477 37.5523 25 37 25H27ZM35 30C35.5523 30 36 30.4477 36 31C36 31.5523 35.5523 32 35 32H29C28.4477 32 28 31.5523 28 31C28 30.4477 28.4477 30 29 30H35ZM35 27C35.5523 27 36 27.4477 36 28C36 28.5523 35.5523 29 35 29H29C28.4477 29 28 28.5523 28 28C28 27.4477 28.4477 27 29 27H35Z" fill="#1B68FF"/>
</svg>
