<svg width="64" height="64" viewBox="0 0 64 64" fill="none" xmlns="http://www.w3.org/2000/svg">
<rect width="64" height="64" rx="20" fill="#D9B5F5" fill-opacity="0.2"/>
<path d="M34.9348 33.1725C35.3654 33.3446 35.5817 33.8402 35.3237 34.2255C35.0294 34.665 34.6493 35.0442 34.2032 35.3386C33.522 35.7881 32.7196 36.0185 31.9037 35.9988C31.0878 35.9792 30.2975 35.7104 29.6387 35.2287C29.2073 34.9131 28.8458 34.5161 28.573 34.0629C28.3338 33.6656 28.5738 33.181 29.0122 33.0299C29.4506 32.8788 29.9192 33.1274 30.2157 33.4839C30.3367 33.6294 30.4756 33.7603 30.63 33.8732C31.0122 34.1527 31.4708 34.3087 31.9441 34.3201C32.4175 34.3315 32.883 34.1978 33.2782 33.937C33.4379 33.8316 33.583 33.7076 33.7108 33.5681C34.0241 33.2262 34.5042 33.0005 34.9348 33.1725Z" fill="#A848E4"/>
<path d="M30 29C30 28.4477 29.5523 28 29 28C28.4477 28 28 28.4477 28 29V30C28 30.5523 28.4477 31 29 31C29.5523 31 30 30.5523 30 30V29Z" fill="#A848E4"/>
<path d="M36 29C36 28.4477 35.5523 28 35 28C34.4477 28 34 28.4477 34 29V30C34 30.5523 34.4477 31 35 31C35.5523 31 36 30.5523 36 30V29Z" fill="#A848E4"/>
<path fill-rule="evenodd" clip-rule="evenodd" d="M22 32C22 26.4772 26.4772 22 32 22C37.5228 22 42 26.4772 42 32C42 37.5228 37.5228 42 32 42C26.4772 42 22 37.5228 22 32ZM32 24C27.5817 24 24 27.5817 24 32C24 36.4183 27.5817 40 32 40C36.4183 40 40 36.4183 40 32C40 27.5817 36.4183 24 32 24Z" fill="#A848E4"/>
</svg>
