<svg width="48" height="48" viewBox="0 0 48 48" fill="none" xmlns="http://www.w3.org/2000/svg">
<circle cx="24" cy="24" r="24" fill="#A848E4"/>
<path d="M32.5056 28.5288C32.0472 28.5288 31.7647 28.8898 31.7207 29.3135C31.614 30.39 31.2184 31.4226 30.6126 32.3045C30.5498 32.3579 30.4933 32.4206 30.4462 32.4897C30.2955 32.7094 30.1197 32.9008 29.8905 33.0107C29.8748 33.0107 29.7053 33.0672 29.677 33.0766C29.6613 33.0797 29.3882 33.0797 29.3694 33.0766C28.8859 33.0075 28.3303 32.6498 27.8876 32.3171C26.7983 31.4948 25.8942 30.4496 24.8362 29.5897C23.6056 28.5916 22.2086 27.7128 20.6107 27.4805C19.2012 27.2734 17.7571 27.7065 16.6113 28.5382C15.321 29.4767 14.285 30.8576 14.0245 32.4614C14.0245 32.474 14.0245 32.4834 14.0245 32.496C14.0213 32.4991 14.0213 32.5022 14.0213 32.5054C13.9899 32.7722 14.059 33.0389 14.2317 33.2241C14.398 33.3842 14.6335 33.4564 14.8815 33.4407H14.8909C14.9254 33.4375 14.96 33.4344 14.9945 33.4281C16.5234 33.1676 18.0334 33.924 19.3299 34.6427C20.6829 35.3929 22.0422 36.2309 23.5805 36.5384C26.5001 37.1253 29.6331 36.0865 31.4978 33.7388C32.5213 32.452 33.1303 30.9486 33.2935 29.3135C33.3375 28.8929 32.9042 28.5288 32.5087 28.5288H32.5056ZM27.3759 34.784C26.1453 35.1951 24.8174 35.261 23.5648 34.9252C22.1678 34.5517 20.956 33.7294 19.694 33.0578C18.4791 32.4081 17.192 31.9028 15.8453 31.84C16.6866 29.9066 18.8716 28.5539 20.978 29.1597C22.4378 29.5802 23.6559 30.5814 24.7515 31.5952C25.7152 32.4865 26.6413 33.4877 27.8029 34.1343C27.9661 34.2253 28.1356 34.3101 28.3114 34.3822C28.0132 34.5423 27.6993 34.6773 27.3759 34.784Z" fill="white"/>
<path d="M14.2285 33.2241C14.1343 33.1362 14.0652 33.0201 14.0244 32.8789C13.993 32.7627 13.993 32.6309 14.0181 32.5054C13.9867 32.7721 14.0558 33.0389 14.2285 33.2241Z" fill="white"/>
<path d="M14.8778 33.4407C14.7742 33.4564 14.6675 33.4532 14.5733 33.4281C14.432 33.3873 14.3159 33.3151 14.228 33.2241C14.3943 33.3842 14.6298 33.4564 14.8778 33.4407Z" fill="white"/>
<path d="M32.2141 19.1599C32.233 19.2133 32.2298 19.2164 32.2204 19.207C32.2204 19.1976 32.2173 19.1913 32.2141 19.1851C32.211 19.1788 32.211 19.1725 32.2078 19.1631C32.2047 19.1568 32.2047 19.1474 32.2047 19.1411L32.2141 19.1599Z" fill="white"/>
<path d="M32.4208 19.5522C32.4208 19.5522 32.424 19.5617 32.4271 19.5649C32.4208 19.5586 32.4208 19.5554 32.4177 19.5522H32.4208Z" fill="white"/>
<path d="M32.5878 19.7344C32.6223 19.7752 32.5784 19.747 32.5564 19.7188C32.5627 19.725 32.5721 19.7313 32.5847 19.7344C32.5847 19.7344 32.5857 19.7344 32.5878 19.7344Z" fill="white"/>
<path d="M32.6697 19.7749C32.6697 19.7749 32.6823 19.7843 32.6854 19.7906C32.6697 19.7906 32.5787 19.7498 32.6321 19.7592C32.6478 19.7655 32.6635 19.7686 32.6697 19.7749Z" fill="white"/>
<path d="M32.7544 19.7876C32.7889 19.7876 32.7889 19.7939 32.7795 19.797C32.7764 19.797 32.7732 19.8002 32.767 19.8002H32.7607C32.7607 19.8002 32.7356 19.8033 32.723 19.8033C32.7073 19.8033 32.6979 19.8002 32.7167 19.7939C32.6916 19.7907 32.6791 19.7845 32.701 19.7813H32.7042C32.7042 19.7813 32.7199 19.7845 32.7356 19.7845H32.7387C32.7387 19.7845 32.7638 19.7719 32.7732 19.7688H32.7764C32.7983 19.7562 32.8046 19.7562 32.7607 19.7845C32.7575 19.7845 32.7575 19.7876 32.7544 19.7876Z" fill="white"/>
<path d="M27.1001 18.9344C27.1001 18.9344 27.1001 18.9375 27.1001 18.9406L28.5033 18.3506L27.0969 18.9344H27.1001Z" fill="white"/>
<path d="M33.8845 20.0231C33.6679 19.6904 33.1687 19.4927 32.8109 19.7437C32.8046 19.7469 32.792 19.7563 32.7763 19.7657C32.7983 19.7563 32.8046 19.7563 32.7606 19.7846C32.7575 19.7846 32.7575 19.7877 32.7544 19.7877C32.7889 19.7877 32.7889 19.794 32.7795 19.7971C32.7763 19.7971 32.7732 19.8002 32.7669 19.8002H32.7606C32.7606 19.8002 32.7355 19.8034 32.723 19.8034C32.7073 19.8034 32.6978 19.8002 32.7167 19.794C32.6916 19.7908 32.679 19.7846 32.701 19.7814C32.6759 19.772 32.6539 19.7626 32.6413 19.7594H32.6319C32.6319 19.7594 32.6633 19.7689 32.6696 19.7751C32.6759 19.7814 32.6821 19.7846 32.6853 19.7908C32.6696 19.7908 32.5786 19.75 32.6319 19.7594C32.6162 19.75 32.6005 19.7437 32.588 19.7343C32.6225 19.7751 32.5786 19.7469 32.5566 19.7186C32.5629 19.7249 32.5723 19.7312 32.5848 19.7343C32.5817 19.7312 32.5754 19.7249 32.5691 19.7155C32.5346 19.681 32.4969 19.6496 32.4655 19.6119C32.4561 19.6025 32.431 19.568 32.4216 19.5523C32.4216 19.5586 32.4247 19.5617 32.4279 19.5649C32.4216 19.5586 32.4216 19.5554 32.4185 19.5523V19.5429C32.409 19.5272 32.4028 19.5178 32.3996 19.5115C32.3776 19.477 32.3588 19.4424 32.3368 19.4079C32.3149 19.3671 32.2552 19.2761 32.2238 19.2071C32.2238 19.1976 32.2207 19.1914 32.2175 19.1851C32.2144 19.1757 32.2113 19.1694 32.2113 19.1631C32.2081 19.1568 32.2081 19.1474 32.2081 19.1411C32.1924 19.0941 32.1736 19.0439 32.1547 18.9968C32.0072 18.5982 31.8973 18.187 31.822 17.7696C31.8126 17.7225 31.8063 17.6754 31.7969 17.6315C31.7937 17.6095 31.7906 17.5876 31.7874 17.5687C31.7749 17.4714 31.7655 17.3741 31.7561 17.2768C31.7466 17.1827 31.7435 17.0885 31.7404 16.9912L31.9067 16.9222C32.3243 16.7464 32.5974 16.3384 32.6005 15.8833C32.6037 15.4282 32.3337 15.0171 31.9162 14.835L25.1729 11.913C24.724 11.7184 24.2092 11.7184 23.7602 11.913L16.6905 14.9543C16.2981 15.1238 16.0438 15.5098 16.047 15.9398C16.0501 16.3698 16.3107 16.7527 16.7062 16.9159L23.5154 19.7218C23.7916 19.8379 24.0899 19.8944 24.3881 19.8944C24.6863 19.8913 24.9846 19.8316 25.2608 19.7155L27.1067 18.9403C27.1067 18.9403 27.1067 18.9371 27.1067 18.934L28.5132 18.3502L27.1099 18.9403C27.722 19.6433 28.0925 20.5535 28.0925 21.5516C28.0925 23.7548 26.2999 25.5501 24.0961 25.5501C21.8924 25.5501 20.0998 23.7548 20.0998 21.5516C20.0998 20.4782 20.5299 19.5052 21.2205 18.7833L19.7011 18.1525C18.9697 19.0941 18.5302 20.271 18.5302 21.5516C18.5302 24.6211 21.0259 27.1194 24.0961 27.1194C27.1664 27.1194 29.6621 24.6211 29.6621 21.5516C29.6621 20.3432 29.2697 19.2227 28.6105 18.3094L30.2272 17.6284C30.3214 18.413 30.5254 19.1788 30.8425 19.9038C31.0497 20.3809 31.3731 20.8391 31.8314 21.1027C32.3651 21.4072 33.0903 21.4605 33.6082 21.0965C33.9442 20.8642 34.1325 20.3997 33.8908 20.0231H33.8845ZM24.6487 18.2686C24.476 18.3408 24.2814 18.3439 24.1087 18.2686L18.4077 15.9178L24.3787 13.3505C24.4321 13.3285 24.4917 13.3285 24.5451 13.3505L30.3559 15.8676L24.6487 18.2655V18.2686Z" fill="white"/>
<path d="M28.5067 18.3506L27.1034 18.9406C27.1034 18.9406 27.1034 18.9375 27.1034 18.9344L28.5098 18.3506H28.5067Z" fill="white"/>
</svg>
