<?xml version="1.0" encoding="UTF-8"?>
<svg xmlns="http://www.w3.org/2000/svg" xmlns:xlink="http://www.w3.org/1999/xlink" width="42px" height="42px" viewBox="0 0 42 42" version="1.1">
<defs>
<linearGradient id="linear0" gradientUnits="userSpaceOnUse" x1="4.57301" y1="8.43357" x2="54.128502" y2="8.43357" gradientTransform="matrix(0.724138,0,0,0.933333,0,0)">
<stop offset="0" style="stop-color:rgb(0%,41.568627%,100%);stop-opacity:1;"/>
<stop offset="0.07" style="stop-color:rgb(10.980392%,38.823529%,98.431373%);stop-opacity:1;"/>
<stop offset="0.29" style="stop-color:rgb(42.745098%,31.372549%,94.901961%);stop-opacity:1;"/>
<stop offset="0.45" style="stop-color:rgb(63.137255%,26.666667%,92.941176%);stop-opacity:1;"/>
<stop offset="0.52" style="stop-color:rgb(70.980392%,25.098039%,92.156863%);stop-opacity:1;"/>
<stop offset="0.61" style="stop-color:rgb(59.607843%,34.509804%,85.098039%);stop-opacity:1;"/>
<stop offset="0.8" style="stop-color:rgb(31.372549%,59.607843%,67.45098%);stop-opacity:1;"/>
<stop offset="1" style="stop-color:rgb(0%,87.45098%,47.843137%);stop-opacity:1;"/>
</linearGradient>
<linearGradient id="linear1" gradientUnits="userSpaceOnUse" x1="5.5161" y1="15.9182" x2="53.740501" y2="15.9182" gradientTransform="matrix(0.724138,0,0,0.933333,0,0)">
<stop offset="0" style="stop-color:rgb(0%,41.568627%,100%);stop-opacity:1;"/>
<stop offset="0.07" style="stop-color:rgb(10.980392%,38.823529%,98.431373%);stop-opacity:1;"/>
<stop offset="0.29" style="stop-color:rgb(42.745098%,31.372549%,94.901961%);stop-opacity:1;"/>
<stop offset="0.45" style="stop-color:rgb(63.137255%,26.666667%,92.941176%);stop-opacity:1;"/>
<stop offset="0.52" style="stop-color:rgb(70.980392%,25.098039%,92.156863%);stop-opacity:1;"/>
<stop offset="0.61" style="stop-color:rgb(59.607843%,34.509804%,85.098039%);stop-opacity:1;"/>
<stop offset="0.8" style="stop-color:rgb(31.372549%,59.607843%,67.45098%);stop-opacity:1;"/>
<stop offset="1" style="stop-color:rgb(0%,87.45098%,47.843137%);stop-opacity:1;"/>
</linearGradient>
<linearGradient id="linear2" gradientUnits="userSpaceOnUse" x1="3.91272" y1="15.9182" x2="53.973801" y2="15.9182" gradientTransform="matrix(0.724138,0,0,0.933333,0,0)">
<stop offset="0" style="stop-color:rgb(0%,41.568627%,100%);stop-opacity:1;"/>
<stop offset="0.07" style="stop-color:rgb(10.980392%,38.823529%,98.431373%);stop-opacity:1;"/>
<stop offset="0.29" style="stop-color:rgb(42.745098%,31.372549%,94.901961%);stop-opacity:1;"/>
<stop offset="0.45" style="stop-color:rgb(63.137255%,26.666667%,92.941176%);stop-opacity:1;"/>
<stop offset="0.52" style="stop-color:rgb(70.980392%,25.098039%,92.156863%);stop-opacity:1;"/>
<stop offset="0.61" style="stop-color:rgb(59.607843%,34.509804%,85.098039%);stop-opacity:1;"/>
<stop offset="0.8" style="stop-color:rgb(31.372549%,59.607843%,67.45098%);stop-opacity:1;"/>
<stop offset="1" style="stop-color:rgb(0%,87.45098%,47.843137%);stop-opacity:1;"/>
</linearGradient>
<linearGradient id="linear3" gradientUnits="userSpaceOnUse" x1="1.03855" y1="32.315899" x2="56.934898" y2="32.315899" gradientTransform="matrix(0.724138,0,0,0.933333,0,0)">
<stop offset="0" style="stop-color:rgb(0%,41.568627%,100%);stop-opacity:1;"/>
<stop offset="0.07" style="stop-color:rgb(10.980392%,38.823529%,98.431373%);stop-opacity:1;"/>
<stop offset="0.29" style="stop-color:rgb(42.745098%,31.372549%,94.901961%);stop-opacity:1;"/>
<stop offset="0.45" style="stop-color:rgb(63.137255%,26.666667%,92.941176%);stop-opacity:1;"/>
<stop offset="0.52" style="stop-color:rgb(70.980392%,25.098039%,92.156863%);stop-opacity:1;"/>
<stop offset="0.61" style="stop-color:rgb(59.607843%,34.509804%,85.098039%);stop-opacity:1;"/>
<stop offset="0.8" style="stop-color:rgb(31.372549%,59.607843%,67.45098%);stop-opacity:1;"/>
<stop offset="1" style="stop-color:rgb(0%,87.45098%,47.843137%);stop-opacity:1;"/>
</linearGradient>
</defs>
<g id="surface1">
<path style=" stroke:none;fill-rule:nonzero;fill:url(#linear0);" d="M 21.640625 15.742188 C 18.269531 15.742188 15.53125 12.214844 15.53125 7.871094 C 15.53125 3.527344 18.269531 0 21.640625 0 C 25.011719 0 27.75 3.527344 27.75 7.871094 C 27.75 12.214844 25.011719 15.742188 21.640625 15.742188 Z M 21.640625 2.40625 C 19.300781 2.40625 17.398438 4.859375 17.398438 7.871094 C 17.398438 10.886719 19.300781 13.335938 21.640625 13.335938 C 23.980469 13.335938 25.882812 10.886719 25.882812 7.871094 C 25.882812 4.859375 23.980469 2.40625 21.640625 2.40625 Z M 21.640625 2.40625 "/>
<path style=" stroke:none;fill-rule:nonzero;fill:url(#linear1);" d="M 34.792969 21.558594 C 31.929688 21.558594 29.59375 18.554688 29.59375 14.855469 C 29.59375 11.160156 31.925781 8.15625 34.792969 8.15625 C 37.664062 8.15625 39.996094 11.160156 39.996094 14.855469 C 39.996094 18.554688 37.664062 21.558594 34.792969 21.558594 Z M 34.792969 10.5625 C 32.957031 10.5625 31.460938 12.488281 31.460938 14.855469 C 31.460938 17.226562 32.957031 19.152344 34.792969 19.152344 C 36.632812 19.152344 38.128906 17.226562 38.128906 14.855469 C 38.128906 12.488281 36.632812 10.5625 34.792969 10.5625 Z M 34.792969 10.5625 "/>
<path style=" stroke:none;fill-rule:nonzero;fill:url(#linear2);" d="M 8.035156 21.558594 C 5.167969 21.558594 2.832031 18.554688 2.832031 14.855469 C 2.832031 11.160156 5.164062 8.15625 8.035156 8.15625 C 10.902344 8.15625 13.234375 11.160156 13.234375 14.855469 C 13.234375 18.554688 10.902344 21.558594 8.035156 21.558594 Z M 8.035156 10.5625 C 6.195312 10.5625 4.703125 12.488281 4.703125 14.855469 C 4.703125 17.226562 6.195312 19.152344 8.035156 19.152344 C 9.871094 19.152344 11.367188 17.226562 11.367188 14.855469 C 11.367188 12.488281 9.871094 10.5625 8.035156 10.5625 Z M 8.035156 10.5625 "/>
<path style=" stroke:none;fill-rule:nonzero;fill:url(#linear3);" d="M 5.261719 37.472656 C 4.175781 38.558594 2.566406 37.230469 2.125 35.792969 C 1.492188 33.753906 2.078125 31.402344 3.011719 29.691406 C 5 26.039062 8.875 25.023438 11.925781 26.929688 C 13.53125 27.933594 14.785156 29.554688 15.59375 31.597656 C 16.328125 33.433594 16.839844 36 16.453125 38.03125 C 16.332031 38.679688 16.128906 39.394531 15.589844 39.144531 C 14.929688 38.835938 14.46875 37.65625 14.160156 36.910156 C 13.453125 35.183594 13.175781 33.214844 13.234375 31.273438 C 13.355469 27.292969 15.027344 23.574219 17.839844 21.8125 C 20.632812 20.070312 24.167969 20.425781 26.726562 22.65625 C 29.335938 24.933594 30.488281 29.164062 30.1875 33.101562 C 30.042969 35.003906 29.492188 36.960938 28.574219 38.476562 C 28.347656 38.851562 28.0625 39.253906 27.714844 39.460938 C 27.4375 39.625 27.253906 39.535156 27.128906 39.367188 C 26.769531 38.878906 26.75 37.84375 26.792969 37.078125 C 27.027344 32.613281 29.160156 28.195312 32.640625 26.984375 C 34.246094 26.425781 36.035156 26.574219 37.476562 27.695312 C 38.792969 28.722656 39.707031 30.480469 40.019531 32.40625 C 40.164062 33.320312 40.125 34.253906 39.933594 35.148438 C 39.609375 36.644531 41.410156 37.28125 41.734375 35.789062 C 42.289062 33.195312 41.804688 30.363281 40.578125 28.207031 C 39.277344 25.925781 37.375 24.585938 35.195312 24.308594 C 32.976562 24.019531 30.679688 24.980469 28.933594 26.738281 C 27.183594 28.496094 25.972656 31.042969 25.367188 33.773438 C 24.851562 36.078125 24.355469 39.800781 26.152344 41.4375 C 28.285156 43.371094 30.324219 39.875 31.105469 37.679688 C 32.785156 32.957031 32.304688 27.164062 29.78125 23.078125 C 27.253906 18.984375 22.796875 17.5 18.9375 18.761719 C 14.988281 20.050781 12.117188 24.320312 11.503906 29.484375 C 11.210938 31.960938 11.367188 34.539062 12.101562 36.878906 C 12.8125 39.125 14.585938 42.851562 16.867188 41.261719 C 18.816406 39.902344 18.542969 36.042969 18.148438 33.722656 C 17.671875 30.941406 16.488281 28.265625 14.769531 26.453125 C 13.003906 24.589844 10.75 23.503906 8.457031 23.5625 C 6.300781 23.617188 4.246094 24.722656 2.65625 26.59375 C 1.070312 28.46875 -0.0390625 31.257812 0 34.089844 C 0.0429688 36.902344 1.347656 39.65625 3.621094 40.132812 C 4.714844 40.363281 5.699219 40.050781 6.578125 39.171875 C 6.976562 38.773438 6.902344 37.886719 6.578125 37.46875 C 6.183594 36.964844 5.65625 37.070312 5.253906 37.46875 Z M 5.261719 37.472656 "/>
</g>
</svg>
