<?xml version="1.0" encoding="UTF-8"?>
<svg xmlns="http://www.w3.org/2000/svg" xmlns:xlink="http://www.w3.org/1999/xlink" width="42px" height="42px" viewBox="0 0 42 42" version="1.1">
<defs>
<linearGradient id="linear0" gradientUnits="userSpaceOnUse" x1="0.000476963" y1="26.837999" x2="40.6656" y2="26.837999" gradientTransform="matrix(0.976744,0,0,0.933333,0,0)">
<stop offset="0" style="stop-color:rgb(0%,41.568627%,100%);stop-opacity:1;"/>
<stop offset="0.07" style="stop-color:rgb(10.980392%,38.823529%,98.431373%);stop-opacity:1;"/>
<stop offset="0.29" style="stop-color:rgb(42.745098%,31.372549%,94.901961%);stop-opacity:1;"/>
<stop offset="0.45" style="stop-color:rgb(63.137255%,26.666667%,92.941176%);stop-opacity:1;"/>
<stop offset="0.52" style="stop-color:rgb(70.980392%,25.098039%,92.156863%);stop-opacity:1;"/>
<stop offset="0.61" style="stop-color:rgb(59.607843%,34.509804%,85.098039%);stop-opacity:1;"/>
<stop offset="0.8" style="stop-color:rgb(31.372549%,59.607843%,67.45098%);stop-opacity:1;"/>
<stop offset="1" style="stop-color:rgb(0%,87.45098%,47.843137%);stop-opacity:1;"/>
</linearGradient>
<linearGradient id="linear1" gradientUnits="userSpaceOnUse" x1="6.30426" y1="22.5005" x2="33.628101" y2="22.5005" gradientTransform="matrix(0.976744,0,0,0.933333,0,0)">
<stop offset="0" style="stop-color:rgb(0%,41.568627%,100%);stop-opacity:1;"/>
<stop offset="0.06" style="stop-color:rgb(10.980392%,38.823529%,98.431373%);stop-opacity:1;"/>
<stop offset="0.26" style="stop-color:rgb(42.745098%,31.372549%,94.901961%);stop-opacity:1;"/>
<stop offset="0.41" style="stop-color:rgb(63.137255%,26.666667%,92.941176%);stop-opacity:1;"/>
<stop offset="0.47" style="stop-color:rgb(70.980392%,25.098039%,92.156863%);stop-opacity:1;"/>
<stop offset="0.57" style="stop-color:rgb(59.607843%,34.509804%,85.098039%);stop-opacity:1;"/>
<stop offset="0.78" style="stop-color:rgb(31.372549%,59.607843%,67.45098%);stop-opacity:1;"/>
<stop offset="1" style="stop-color:rgb(0%,87.45098%,47.843137%);stop-opacity:1;"/>
</linearGradient>
<linearGradient id="linear2" gradientUnits="userSpaceOnUse" x1="5.96904" y1="20.8979" x2="34.2812" y2="20.8979" gradientTransform="matrix(0.976744,0,0,0.933333,0,0)">
<stop offset="0" style="stop-color:rgb(0%,41.568627%,100%);stop-opacity:1;"/>
<stop offset="0.06" style="stop-color:rgb(10.980392%,38.823529%,98.431373%);stop-opacity:1;"/>
<stop offset="0.26" style="stop-color:rgb(42.745098%,31.372549%,94.901961%);stop-opacity:1;"/>
<stop offset="0.4" style="stop-color:rgb(63.137255%,26.666667%,92.941176%);stop-opacity:1;"/>
<stop offset="0.47" style="stop-color:rgb(70.980392%,25.098039%,92.156863%);stop-opacity:1;"/>
<stop offset="0.57" style="stop-color:rgb(59.607843%,34.509804%,85.098039%);stop-opacity:1;"/>
<stop offset="0.78" style="stop-color:rgb(31.372549%,59.607843%,67.45098%);stop-opacity:1;"/>
<stop offset="1" style="stop-color:rgb(0%,87.45098%,47.843137%);stop-opacity:1;"/>
</linearGradient>
<linearGradient id="linear3" gradientUnits="userSpaceOnUse" x1="-165.192001" y1="29.6584" x2="-164.656998" y2="29.6584" gradientTransform="matrix(0.976744,0,0,0.933333,0,0)">
<stop offset="0" style="stop-color:rgb(0%,41.568627%,100%);stop-opacity:1;"/>
<stop offset="0.06" style="stop-color:rgb(10.980392%,38.823529%,98.431373%);stop-opacity:1;"/>
<stop offset="0.26" style="stop-color:rgb(42.745098%,31.372549%,94.901961%);stop-opacity:1;"/>
<stop offset="0.4" style="stop-color:rgb(63.137255%,26.666667%,92.941176%);stop-opacity:1;"/>
<stop offset="0.47" style="stop-color:rgb(70.980392%,25.098039%,92.156863%);stop-opacity:1;"/>
<stop offset="0.57" style="stop-color:rgb(59.607843%,34.509804%,85.098039%);stop-opacity:1;"/>
<stop offset="0.78" style="stop-color:rgb(31.372549%,59.607843%,67.45098%);stop-opacity:1;"/>
<stop offset="1" style="stop-color:rgb(0%,87.45098%,47.843137%);stop-opacity:1;"/>
</linearGradient>
<linearGradient id="linear4" gradientUnits="userSpaceOnUse" x1="6.75465" y1="20.8979" x2="34.682098" y2="20.8979" gradientTransform="matrix(0.976744,0,0,0.933333,0,0)">
<stop offset="0" style="stop-color:rgb(0%,41.568627%,100%);stop-opacity:1;"/>
<stop offset="0.06" style="stop-color:rgb(10.980392%,38.823529%,98.431373%);stop-opacity:1;"/>
<stop offset="0.24" style="stop-color:rgb(42.745098%,31.372549%,94.901961%);stop-opacity:1;"/>
<stop offset="0.36" style="stop-color:rgb(63.137255%,26.666667%,92.941176%);stop-opacity:1;"/>
<stop offset="0.42" style="stop-color:rgb(70.980392%,25.098039%,92.156863%);stop-opacity:1;"/>
<stop offset="0.53" style="stop-color:rgb(59.607843%,34.509804%,85.098039%);stop-opacity:1;"/>
<stop offset="0.76" style="stop-color:rgb(31.372549%,59.607843%,67.45098%);stop-opacity:1;"/>
<stop offset="1" style="stop-color:rgb(0%,87.45098%,47.843137%);stop-opacity:1;"/>
</linearGradient>
<linearGradient id="linear5" gradientUnits="userSpaceOnUse" x1="-165.190994" y1="29.6584" x2="-164.656998" y2="29.6584" gradientTransform="matrix(0.976744,0,0,0.933333,0,0)">
<stop offset="0" style="stop-color:rgb(0%,41.568627%,100%);stop-opacity:1;"/>
<stop offset="0.06" style="stop-color:rgb(10.980392%,38.823529%,98.431373%);stop-opacity:1;"/>
<stop offset="0.24" style="stop-color:rgb(42.745098%,31.372549%,94.901961%);stop-opacity:1;"/>
<stop offset="0.36" style="stop-color:rgb(63.137255%,26.666667%,92.941176%);stop-opacity:1;"/>
<stop offset="0.42" style="stop-color:rgb(70.980392%,25.098039%,92.156863%);stop-opacity:1;"/>
<stop offset="0.53" style="stop-color:rgb(59.607843%,34.509804%,85.098039%);stop-opacity:1;"/>
<stop offset="0.76" style="stop-color:rgb(31.372549%,59.607843%,67.45098%);stop-opacity:1;"/>
<stop offset="1" style="stop-color:rgb(0%,87.45098%,47.843137%);stop-opacity:1;"/>
</linearGradient>
</defs>
<g id="surface1">
<path style=" stroke:none;fill-rule:nonzero;fill:url(#linear0);" d="M 21.617188 11.332031 C 19.226562 12.457031 16.835938 13.570312 14.445312 14.695312 C 12.78125 15.472656 10.890625 16.160156 9.445312 17.292969 C 8.820312 17.785156 8.296875 18.371094 8.03125 19.109375 C 7.707031 20.003906 7.699219 20.957031 7.699219 21.886719 C 7.699219 22.621094 7.703125 23.355469 7.707031 24.085938 C 10.464844 21.289062 13.6875 18.910156 17.21875 17.058594 C 18.695312 16.285156 20.007812 18.4375 18.539062 19.210938 C 14.378906 21.390625 10.734375 24.304688 7.738281 27.816406 C 7.75 28.96875 7.761719 30.117188 7.777344 31.265625 C 9.617188 29.140625 11.847656 27.367188 14.382812 26.035156 C 15.859375 25.261719 17.175781 27.417969 15.703125 28.183594 C 12.921875 29.644531 10.484375 31.691406 8.707031 34.203125 C 6.820312 36.863281 5.308594 40.300781 1.648438 41.03125 C 0.957031 41.171875 0.242188 40.847656 0.0429688 40.164062 C -0.136719 39.542969 0.261719 38.769531 0.957031 38.628906 C 2.4375 38.332031 3.523438 37.308594 4.359375 36.148438 C 4.65625 35.734375 4.933594 35.308594 5.207031 34.878906 C 5.183594 32.292969 5.15625 29.699219 5.136719 27.113281 C 5.113281 24.878906 4.933594 22.585938 5.140625 20.363281 C 5.355469 18.164062 6.316406 16.429688 8.167969 15.109375 C 9.832031 13.910156 11.847656 13.144531 13.710938 12.269531 C 15.90625 11.238281 18.105469 10.210938 20.300781 9.179688 C 20.9375 8.886719 21.710938 9.011719 22.085938 9.628906 C 22.425781 10.175781 22.253906 11.039062 21.617188 11.332031 Z M 21.617188 11.332031 "/>
<path style=" stroke:none;fill-rule:nonzero;fill:url(#linear1);" d="M 41.148438 36.351562 C 40.949219 37.039062 40.234375 37.34375 39.546875 37.222656 C 37.324219 36.828125 35.074219 36.605469 32.816406 36.546875 C 24.773438 36.328125 16.71875 38.140625 9.660156 41.835938 C 8.183594 42.609375 6.867188 40.453125 8.34375 39.679688 C 10.496094 38.558594 12.734375 37.59375 15.035156 36.789062 C 20.242188 34.980469 25.765625 34.066406 31.289062 34.054688 C 31.3125 30.886719 31.320312 27.726562 31.34375 24.554688 C 31.359375 21.542969 31.375 18.53125 31.390625 15.515625 C 31.394531 14.253906 31.527344 12.914062 31.296875 11.65625 C 31.082031 10.511719 30.472656 9.859375 29.394531 9.34375 C 28.085938 8.714844 26.683594 8.246094 25.332031 7.714844 C 23.855469 7.128906 22.378906 6.546875 20.902344 5.96875 C 18.5 5.023438 16.105469 4.078125 13.703125 3.132812 C 13.71875 5.015625 13.730469 6.902344 13.746094 8.789062 C 13.761719 10.394531 11.152344 10.390625 11.136719 8.789062 C 11.117188 6.28125 11.101562 3.78125 11.078125 1.277344 C 11.074219 0.542969 11.929688 -0.242188 12.734375 0.0703125 C 16.246094 1.457031 19.757812 2.839844 23.269531 4.222656 C 24.78125 4.820312 26.300781 5.421875 27.820312 6.015625 C 29.203125 6.5625 30.707031 7.015625 31.902344 7.910156 C 34.371094 9.757812 34.015625 12.96875 34 15.640625 C 33.960938 21.804688 33.9375 27.960938 33.898438 34.117188 C 36.023438 34.21875 38.144531 34.453125 40.242188 34.820312 C 40.933594 34.941406 41.328125 35.746094 41.148438 36.351562 Z M 41.148438 36.351562 "/>
<path style=" stroke:none;fill-rule:nonzero;fill:url(#linear2);" d="M 26.046875 17.992188 C 26.027344 19 26.003906 20.007812 25.988281 21.015625 C 25.980469 21.667969 26.601562 22.292969 27.292969 22.261719 C 28.015625 22.230469 28.582031 21.714844 28.597656 21.015625 C 28.621094 20.007812 28.640625 19 28.65625 17.992188 C 28.667969 17.339844 28.046875 16.71875 27.351562 16.746094 C 26.632812 16.777344 26.0625 17.296875 26.046875 17.992188 Z M 26.046875 17.992188 "/>
<path style=" stroke:none;fill-rule:nonzero;fill:url(#linear3);" d="M 26.046875 26.171875 C 26.027344 27.175781 26.003906 28.183594 25.988281 29.191406 C 25.980469 29.84375 26.601562 30.46875 27.292969 30.4375 C 28.015625 30.410156 28.582031 29.890625 28.597656 29.191406 C 28.621094 28.183594 28.640625 27.175781 28.65625 26.171875 C 28.667969 25.515625 28.046875 24.894531 27.351562 24.925781 C 26.632812 24.953125 26.0625 25.472656 26.046875 26.171875 Z M 26.046875 26.171875 "/>
<path style=" stroke:none;fill-rule:nonzero;fill:url(#linear4);" d="M 21.199219 17.992188 C 21.179688 19 21.15625 20.007812 21.140625 21.015625 C 21.132812 21.667969 21.753906 22.292969 22.445312 22.261719 C 23.167969 22.230469 23.734375 21.714844 23.75 21.015625 C 23.773438 20.007812 23.792969 19 23.808594 17.992188 C 23.820312 17.339844 23.199219 16.71875 22.503906 16.746094 C 21.785156 16.777344 21.214844 17.296875 21.199219 17.992188 Z M 21.199219 17.992188 "/>
<path style=" stroke:none;fill-rule:nonzero;fill:url(#linear5);" d="M 21.199219 26.171875 C 21.179688 27.175781 21.15625 28.183594 21.140625 29.191406 C 21.132812 29.84375 21.753906 30.46875 22.445312 30.4375 C 23.167969 30.410156 23.734375 29.890625 23.75 29.191406 C 23.773438 28.183594 23.792969 27.175781 23.808594 26.171875 C 23.820312 25.515625 23.199219 24.894531 22.503906 24.925781 C 21.808594 24.953125 21.214844 25.472656 21.199219 26.171875 Z M 21.199219 26.171875 "/>
</g>
</svg>
