<svg width="33" height="29" viewBox="0 0 33 29" fill="none" xmlns="http://www.w3.org/2000/svg">
<path d="M6.94073 11.6892C6.90986 12.7 8.48003 12.6962 8.51089 11.6892C8.64206 7.53429 11.4429 3.69183 15.3471 2.26827C19.0314 0.925725 23.2134 1.55842 26.319 3.9696C29.1198 6.14931 30.6784 9.59055 30.6707 13.1205C30.663 16.2879 29.3243 19.3086 26.8861 21.3108C25.937 17.233 21.0414 15.1073 17.1757 16.6003C16.7784 16.7508 16.5045 17.1212 16.6241 17.5648C16.7282 17.9467 17.195 18.267 17.5924 18.1165C19.3709 17.4298 21.377 17.5918 23.0359 18.5563C24.3244 19.3086 25.3159 20.6473 25.4587 22.1557C25.4587 22.202 25.4702 22.2483 25.4818 22.2907C22.9086 23.8146 19.7798 24.347 16.8787 23.4905C15.9065 23.2012 15.4937 24.7173 16.462 25.0067C16.9018 25.134 17.3493 25.242 17.8046 25.3153C21.6046 25.9287 25.5628 24.6672 28.3945 22.0747C31.2841 19.432 32.6112 15.4507 32.156 11.5889C31.6737 7.47257 29.3899 3.79986 25.7711 1.72045C21.9364 -0.490121 17.0754 -0.590424 13.1828 1.53527C9.51009 3.53752 7.07961 7.50729 6.94458 11.6854L6.94073 11.6892Z" fill="white"/>
<path d="M14.4162 9.47794C14.3198 8.22027 14.7171 6.99732 15.535 6.04056C16.3567 5.07995 17.4987 4.4974 18.7602 4.40096C21.3643 4.19263 23.6366 6.14858 23.8411 8.74495C24.0455 11.3413 22.0973 13.6213 19.4971 13.8258C19.3736 13.8374 19.2502 13.8412 19.1267 13.8412C16.6847 13.8412 14.613 11.9586 14.4201 9.4818L14.4162 9.47794ZM18.8837 5.96727C18.0426 6.03285 17.2788 6.42249 16.7309 7.06291C16.1831 7.70332 15.9169 8.51733 15.9825 9.35835C16.1175 11.0905 17.6337 12.3907 19.3736 12.2595C21.1097 12.1245 22.4098 10.6044 22.2748 8.8684C22.1474 7.21722 20.7625 5.95955 19.1306 5.95955C19.0495 5.95955 18.9647 5.95955 18.8837 5.96727Z" fill="white"/>
<path d="M9.15147 24.2929C8.39146 25.6547 7.6276 27.0127 6.86759 28.3745C6.53967 28.9648 5.71794 28.7989 5.52504 28.1932C5.11225 26.9085 4.6956 25.6277 4.2828 24.343L4.99265 24.9024C3.70411 24.7288 2.3307 24.6748 1.33536 23.6911C0.340024 22.7073 0.0159574 21.2992 0.000525833 19.9875C-0.0110479 18.9343 0.166413 17.7036 0.733525 16.797C1.47424 15.6203 2.58918 14.7215 3.87 14.2585C4.88849 13.892 5.98028 13.8419 7.04892 13.7994C8.46477 13.7416 9.91919 13.73 11.2887 14.1659C12.6583 14.6019 13.8465 15.4545 14.5525 16.743C15.2007 17.9274 15.4244 19.3201 15.2084 20.6588C14.7223 23.6872 11.4894 25.7087 8.66538 24.725C7.7742 24.4125 8.15613 22.9465 9.05502 23.259C10.8837 23.8955 13.048 22.8385 13.6382 20.9134C14.2632 18.8764 13.291 16.6543 11.3968 15.8132C10.2857 15.3194 9.03188 15.2654 7.83979 15.2924C6.96404 15.3117 5.98413 15.3233 5.18555 15.4738C4.20178 15.6628 3.31832 16.0833 2.60847 16.8163C1.89861 17.5493 1.66714 18.101 1.5244 19.0654C1.37394 20.0801 1.48967 21.2992 2.06064 22.2173C2.6972 23.2358 3.9433 23.2397 4.99265 23.3824C5.33601 23.4287 5.59063 23.5908 5.7025 23.9418C6.1153 25.2265 6.53195 26.5073 6.94475 27.792L5.6022 27.6107C6.36221 26.2488 7.12607 24.8909 7.88608 23.529C8.3606 22.6841 9.62985 23.448 9.15533 24.2967L9.15147 24.2929Z" fill="white"/>
</svg>
