<svg width="25" height="30" viewBox="0 0 25 30" fill="none" xmlns="http://www.w3.org/2000/svg">
<path d="M22.2672 20.1689C21.7157 20.1689 21.3757 20.6032 21.3229 21.113C21.1944 22.4084 20.7185 23.6509 19.9894 24.7122C19.9139 24.7764 19.8459 24.8519 19.7892 24.935C19.6079 25.1993 19.3964 25.4297 19.1206 25.5619C19.1017 25.5619 18.8977 25.6299 18.8637 25.6412C18.8449 25.645 18.5162 25.645 18.4936 25.6412C17.9118 25.5581 17.2432 25.1276 16.7106 24.7273C15.3998 23.7378 14.3119 22.4802 13.0389 21.4454C11.5582 20.2444 9.8772 19.1869 7.95448 18.9075C6.25841 18.6582 4.52078 19.1794 3.14202 20.1802C1.58949 21.3094 0.342927 22.9711 0.0293991 24.901C0.0293991 24.9161 0.0293991 24.9274 0.0293991 24.9425C0.0256217 24.9463 0.0256237 24.9501 0.0256237 24.9539C-0.0121507 25.2749 0.0709524 25.5959 0.278712 25.8187C0.478916 26.0113 0.762228 26.0982 1.06065 26.0793H1.07198C1.11353 26.0755 1.15508 26.0717 1.19663 26.0642C3.03625 25.7507 4.8532 26.6609 6.41328 27.5257C8.04136 28.4284 9.677 29.4367 11.5279 29.8068C15.041 30.5131 18.8109 29.263 21.0547 26.4381C22.2861 24.8897 23.0189 23.0806 23.2154 21.113C23.2682 20.607 22.747 20.1689 22.271 20.1689H22.2672ZM16.0949 27.6957C14.6141 28.1904 13.0163 28.2697 11.5091 27.8656C9.82809 27.4162 8.37 26.4267 6.85146 25.6185C5.38959 24.8368 3.84084 24.2287 2.22032 24.1532C3.23267 21.8268 5.86178 20.1991 8.39644 20.928C10.153 21.434 11.6186 22.6388 12.9369 23.8586C14.0966 24.9312 15.211 26.1359 16.6086 26.9139C16.805 27.0234 17.009 27.1254 17.2206 27.2123C16.8617 27.4049 16.4839 27.5673 16.0949 27.6957Z" fill="white"/>
<path d="M0.274889 25.818C0.161566 25.7122 0.0784586 25.5725 0.0293518 25.4025C-0.00842264 25.2628 -0.00841849 25.1042 0.0218011 24.9531C-0.0159734 25.2741 0.0671297 25.5952 0.274889 25.818Z" fill="white"/>
<path d="M1.05678 26.0799C0.932129 26.0988 0.803695 26.095 0.690372 26.0648C0.520387 26.0157 0.380625 25.9289 0.274857 25.8193C0.475061 26.0119 0.758367 26.0988 1.05678 26.0799Z" fill="white"/>
<path d="M21.916 8.89595C21.9389 8.96085 21.9351 8.96466 21.9236 8.95321C21.9236 8.94176 21.9198 8.93413 21.916 8.92649C21.9121 8.91886 21.9121 8.91122 21.9083 8.89977C21.9045 8.89213 21.9045 8.88068 21.9045 8.87305L21.916 8.89595Z" fill="white"/>
<path d="M22.1652 9.36719C22.1652 9.36719 22.1689 9.37852 22.1727 9.3823C22.1652 9.37474 22.1652 9.37096 22.1614 9.36719H22.1652Z" fill="white"/>
<path d="M22.3657 9.58647C22.4077 9.6361 22.3543 9.60174 22.3275 9.56738C22.3352 9.57502 22.3466 9.58265 22.3619 9.58647C22.3619 9.58647 22.3632 9.58647 22.3657 9.58647Z" fill="white"/>
<path d="M22.4643 9.63604C22.4643 9.63604 22.4796 9.64749 22.4834 9.65512C22.4643 9.65512 22.3536 9.6055 22.4185 9.61695C22.4376 9.62458 22.4567 9.6284 22.4643 9.63604Z" fill="white"/>
<path d="M22.5655 9.65147C22.6071 9.65147 22.6071 9.65902 22.5958 9.6628C22.592 9.6628 22.5882 9.66658 22.5806 9.66658H22.5731C22.5731 9.66658 22.5429 9.67035 22.5278 9.67035C22.5089 9.67035 22.4975 9.66658 22.5202 9.65902C22.49 9.65525 22.4749 9.64769 22.5013 9.64392H22.5051C22.5051 9.64392 22.524 9.64769 22.5429 9.64769H22.5466C22.5466 9.64769 22.5769 9.63259 22.5882 9.62881H22.592C22.6184 9.6137 22.626 9.6137 22.5731 9.64769C22.5693 9.64769 22.5693 9.65147 22.5655 9.65147Z" fill="white"/>
<path d="M15.7623 8.62335C15.7623 8.62335 15.7623 8.62713 15.7623 8.6309L17.4509 7.9209L15.7586 8.62335H15.7623Z" fill="white"/>
<path d="M23.9255 9.93442C23.6649 9.5341 23.0642 9.29617 22.6336 9.5983C22.6261 9.60208 22.611 9.61341 22.5921 9.62474C22.6185 9.61341 22.6261 9.61341 22.5732 9.6474C22.5694 9.6474 22.5694 9.65117 22.5656 9.65117C22.6072 9.65117 22.6072 9.65872 22.5958 9.6625C22.5921 9.6625 22.5883 9.66628 22.5807 9.66628H22.5732C22.5732 9.66628 22.543 9.67006 22.5278 9.67006C22.509 9.67006 22.4976 9.66628 22.5203 9.65872C22.4901 9.65495 22.475 9.6474 22.5014 9.64362C22.4712 9.63229 22.4447 9.62096 22.4296 9.61718H22.4183C22.4183 9.61718 22.4561 9.62851 22.4636 9.63607C22.4712 9.64362 22.4787 9.6474 22.4825 9.65495C22.4636 9.65495 22.3541 9.60585 22.4183 9.61718C22.3994 9.60585 22.3805 9.5983 22.3654 9.58697C22.407 9.63607 22.3541 9.60208 22.3276 9.56809C22.3352 9.57564 22.3465 9.58319 22.3616 9.58697C22.3579 9.58319 22.3503 9.57564 22.3428 9.56431C22.3012 9.52277 22.2559 9.485 22.2181 9.43968C22.2068 9.42835 22.1765 9.38681 22.1652 9.36792C22.1652 9.37548 22.169 9.37926 22.1728 9.38303C22.1652 9.37548 22.1652 9.3717 22.1614 9.36792V9.3566C22.1501 9.33771 22.1425 9.32638 22.1388 9.31883C22.1123 9.27729 22.0897 9.23574 22.0632 9.1942C22.0368 9.1451 21.965 9.03558 21.9272 8.9525C21.9272 8.94117 21.9235 8.93361 21.9197 8.92606C21.9159 8.91473 21.9121 8.90718 21.9121 8.89962C21.9083 8.89207 21.9083 8.88074 21.9083 8.87319C21.8895 8.81654 21.8668 8.75611 21.8441 8.69946C21.6666 8.21983 21.5344 7.72509 21.4437 7.2228C21.4324 7.16615 21.4248 7.1095 21.4135 7.05663C21.4097 7.03019 21.4059 7.00376 21.4022 6.9811C21.3871 6.86402 21.3757 6.74694 21.3644 6.62987C21.3531 6.51657 21.3493 6.40327 21.3455 6.2862L21.5457 6.20311C22.0481 5.99162 22.3767 5.50066 22.3805 4.95305C22.3843 4.40544 22.0594 3.9107 21.557 3.69165L13.4431 0.175613C12.9029 -0.0585377 12.2834 -0.0585377 11.7432 0.175613L3.23643 3.83517C2.76425 4.0391 2.45828 4.50363 2.46206 5.02103C2.46583 5.53842 2.77936 5.99917 3.25532 6.19556L11.4486 9.57186C11.781 9.7116 12.1399 9.77958 12.4987 9.77958C12.8576 9.7758 13.2164 9.70404 13.5489 9.56431L15.77 8.63148C15.77 8.63148 15.77 8.62771 15.77 8.62393L17.4623 7.92148L15.7738 8.63148C16.5104 9.47745 16.9561 10.5727 16.9561 11.7736C16.9561 14.4248 14.7992 16.5851 12.1474 16.5851C9.49566 16.5851 7.33874 14.4248 7.33874 11.7736C7.33874 10.482 7.85625 9.31128 8.68728 8.44265L6.859 7.68355C5.97886 8.81654 5.45002 10.2328 5.45002 11.7736C5.45002 15.4672 8.45308 18.4734 12.1474 18.4734C15.8418 18.4734 18.8448 15.4672 18.8448 11.7736C18.8448 10.3196 18.3727 8.97138 17.5794 7.87238L19.5248 7.05285C19.6381 7.99701 19.8836 8.91851 20.2652 9.79091C20.5145 10.365 20.9035 10.9163 21.4551 11.2336C22.0972 11.5999 22.9698 11.6641 23.5931 11.226C23.9973 10.9466 24.2239 10.3876 23.9331 9.93442H23.9255ZM12.8123 7.82328C12.6045 7.91015 12.3703 7.91392 12.1625 7.82328L5.3027 4.99459L12.4874 1.90531C12.5516 1.87887 12.6234 1.87887 12.6876 1.90531L19.6797 4.93416L12.8123 7.81951V7.82328Z" fill="white"/>
<path d="M17.4547 7.9209L15.7662 8.6309C15.7662 8.6309 15.7662 8.62713 15.7662 8.62335L17.4585 7.9209H17.4547Z" fill="white"/>
</svg>
