<svg width="29" height="30" viewBox="0 0 29 30" fill="none" xmlns="http://www.w3.org/2000/svg">
<path d="M14.754 8.09512C13.1226 8.89638 11.4912 9.69407 9.85982 10.4953C8.72356 11.0509 7.43413 11.5423 6.44747 12.3507C6.02003 12.7032 5.66384 13.1234 5.48218 13.6505C5.26134 14.2879 5.25421 14.9681 5.25421 15.634C5.25421 16.1575 5.25778 16.681 5.26134 17.2045C7.14205 15.2067 9.34335 13.508 11.7512 12.1833C12.7593 11.6313 13.6569 13.1697 12.6524 13.7217C9.81353 15.2779 7.32728 17.3612 5.28271 19.8682C5.28983 20.6909 5.29695 21.5135 5.30763 22.3325C6.56501 20.8155 8.08597 19.5477 9.81708 18.5969C10.8251 18.0449 11.7227 19.5833 10.7183 20.1318C8.81973 21.1752 7.15629 22.6352 5.94166 24.4301C4.65579 26.3317 3.62283 28.7853 1.12589 29.3088C0.652152 29.4085 0.164168 29.177 0.0288137 28.6892C-0.0922931 28.244 0.178416 27.6921 0.652157 27.5923C1.66375 27.3787 2.40464 26.6486 2.97455 25.8189C3.17758 25.5233 3.36637 25.2206 3.55515 24.9144C3.53734 23.0661 3.51953 21.2143 3.50528 19.3661C3.49103 17.7707 3.36637 16.1326 3.50885 14.5443C3.65489 12.9739 4.31028 11.7346 5.57478 10.7909C6.71105 9.93623 8.08597 9.38782 9.3576 8.76462C10.8572 8.02746 12.3568 7.29387 13.8563 6.55671C14.2909 6.34661 14.8181 6.43563 15.0745 6.87721C15.3061 7.26894 15.1885 7.88502 14.754 8.09512Z" fill="white"/>
<path d="M28.0864 25.9651C27.951 26.4565 27.463 26.6737 26.9928 26.5883C25.4754 26.3069 23.9402 26.1467 22.3979 26.1039C16.9089 25.9473 11.4128 27.2435 6.59349 29.8823C5.58545 30.4343 4.68784 28.8959 5.69588 28.3439C7.1634 27.5426 8.69148 26.8518 10.2623 26.2784C13.8171 24.9857 17.5857 24.3341 21.3578 24.3234C21.3721 22.0621 21.3792 19.8043 21.3934 17.5394C21.4041 15.3885 21.4148 13.2376 21.4255 11.0831C21.4291 10.1821 21.5181 9.22416 21.3614 8.32676C21.2153 7.50769 20.7986 7.04119 20.0648 6.67439C19.1708 6.22569 18.2126 5.89094 17.2901 5.5099C16.282 5.09324 15.274 4.67659 14.266 4.2635C12.6275 3.58688 10.9925 2.91383 9.35401 2.23721C9.36469 3.58332 9.37181 4.92943 9.3825 6.2791C9.39318 7.42579 7.6122 7.42223 7.60152 6.2791C7.58727 4.48785 7.57659 2.70016 7.56234 0.912471C7.55878 0.388984 8.14293 -0.173675 8.69148 0.0506763C11.0887 1.04067 13.4859 2.02711 15.8831 3.0171C16.916 3.44444 17.9526 3.87177 18.9891 4.29555C19.933 4.68727 20.9589 5.01134 21.7746 5.64878C23.4594 6.96996 23.2172 9.26333 23.2065 11.1721C23.1815 15.5737 23.1637 19.9717 23.1388 24.3697C24.5885 24.4409 26.0347 24.6083 27.4666 24.8718C27.9403 24.9573 28.2075 25.5342 28.0864 25.9651Z" fill="white"/>
<path d="M17.7781 12.8529C17.7638 13.5723 17.7496 14.2916 17.7389 15.011C17.7318 15.4775 18.1557 15.9226 18.6294 15.9013C19.1209 15.8799 19.5092 15.5095 19.5199 15.011C19.5341 14.2916 19.5484 13.5723 19.5591 12.8529C19.5662 12.3864 19.1423 11.9413 18.6686 11.9627C18.177 11.984 17.7888 12.3544 17.7781 12.8529Z" fill="white"/>
<path d="M17.7781 18.6928C17.7638 19.4121 17.7496 20.1315 17.7389 20.8508C17.7318 21.3173 18.1557 21.7625 18.6294 21.7411C19.1209 21.7197 19.5092 21.3494 19.5199 20.8508C19.5341 20.1315 19.5484 19.4121 19.5591 18.6928C19.5662 18.2263 19.1423 17.7811 18.6686 17.8025C18.177 17.8239 17.7888 18.1942 17.7781 18.6928Z" fill="white"/>
<path d="M14.469 12.8529C14.4548 13.5723 14.4405 14.2916 14.4298 15.011C14.4227 15.4775 14.8466 15.9226 15.3203 15.9013C15.8119 15.8799 16.2001 15.5095 16.2108 15.011C16.2251 14.2916 16.2393 13.5723 16.25 12.8529C16.2571 12.3864 15.8332 11.9413 15.3595 11.9627C14.868 11.984 14.4797 12.3544 14.469 12.8529Z" fill="white"/>
<path d="M14.469 18.6928C14.4548 19.4121 14.4405 20.1315 14.4298 20.8508C14.4227 21.3173 14.8466 21.7625 15.3203 21.7411C15.8119 21.7197 16.2001 21.3494 16.2108 20.8508C16.2251 20.1315 16.2393 19.4121 16.25 18.6928C16.2571 18.2263 15.8332 17.7811 15.3595 17.8025C14.8858 17.8239 14.4797 18.1942 14.469 18.6928Z" fill="white"/>
</svg>
