<svg width="1310" height="494" viewBox="0 0 1310 494" fill="none" xmlns="http://www.w3.org/2000/svg">
<g opacity="0.27">
<path d="M-850.765 235.101C-842.159 197.657 -806.685 177.951 -770.723 175.292C-720.422 171.549 -673.445 203.15 -633.188 233.858C-586.64 269.346 -543.168 308.312 -490.382 333.059C-437.596 357.807 -383.011 359.491 -331.505 338.127C-234.723 297.991 -183.933 194.637 -97.2605 139.807C-57.4527 114.613 -10.4688 101.824 34.5795 125.024C74.7292 145.711 104.823 184.458 134.818 218.268C168.743 256.494 205.027 291.505 249.583 315.13C294.14 338.755 341.748 352.945 390.848 357.049C485.799 364.996 595.803 333.612 657.625 255.798C690.833 213.988 701.982 149.491 662.047 104.875C622.028 60.1651 560.072 78.1849 532.729 124.692C472.274 227.48 598.149 335.088 673.028 384.059C838.327 492.137 1053.46 507.607 1224.14 421.266C1244.81 410.799 1264.62 398.754 1283.6 385.281C1296.17 376.375 1302.55 360.168 1294.45 344.707C1287.49 331.411 1268.24 322.915 1255.61 331.877C1112.75 433.179 922.333 441.979 761.676 366.955C722.518 348.665 685.22 324.248 651.777 295.821C621.039 269.672 579.88 232.481 574.943 188.614C571.694 159.723 605.885 117.093 625.319 151.222C647.31 189.906 605.803 229.537 577.634 249.115C508.15 297.416 418.281 310.306 336.228 286.974C294.691 275.176 254.99 254.963 221.562 225.515C187.148 195.233 159.614 157.101 127.172 124.637C91.92 89.3495 51.9654 61.3341 3.5997 53.9305C-45.705 46.3575 -94.805 65.2005 -134.847 92.7279C-176.36 121.291 -209.982 158.267 -244.684 195.006C-276.399 228.593 -309.94 262.085 -351.8 281.367C-450.114 326.686 -537.831 231.781 -613.776 175.868C-655.968 144.818 -704.886 117.116 -756.67 115.097C-799.073 113.449 -844.307 127.472 -874.392 158.889C-889.464 174.611 -900.458 194.305 -905.494 216.267C-914.068 253.531 -859.341 272.486 -850.737 235.132L-850.765 235.101Z" fill="url(#paint0_linear_559_2488)"/>
</g>
<defs>
<linearGradient id="paint0_linear_559_2488" x1="46.6456" y1="136.456" x2="840.782" y2="456.79" gradientUnits="userSpaceOnUse">
<stop stop-color="#006AFF"/>
<stop offset="0.07" stop-color="#1C63FB"/>
<stop offset="0.29" stop-color="#6D50F2"/>
<stop offset="0.45" stop-color="#A144ED"/>
<stop offset="0.52" stop-color="#B540EB"/>
<stop offset="0.61" stop-color="#9858D9"/>
<stop offset="0.8" stop-color="#5098AC"/>
<stop offset="1" stop-color="#00DF7A"/>
</linearGradient>
</defs>
</svg>
