<svg width="48" height="48" viewBox="0 0 48 48" fill="none" xmlns="http://www.w3.org/2000/svg">
<circle cx="24" cy="24" r="24" fill="#A848E4"/>
<path d="M22.7238 25.5869C23.0397 24.6702 23.2924 23.5408 22.9945 22.5822C22.8802 22.2138 22.5613 21.9442 22.1672 21.9232C21.6438 21.8992 21.3519 22.3306 21.0541 22.6901C20.8766 22.9028 20.7051 23.1185 20.5367 23.3401C20.8375 22.3426 21.1384 21.348 21.4392 20.3505C21.719 19.4159 22.0589 18.2116 21.018 17.5975C20.6961 17.4058 20.3261 17.3579 19.9801 17.4238C19.9711 16.8486 19.8387 16.2675 19.5168 15.7882C19.1287 15.213 18.2984 15.1201 17.8381 15.6653C17.7419 15.7792 17.6697 15.917 17.6095 16.0608C17.2244 15.7312 16.6558 15.6174 16.1775 15.875C15.8345 16.0608 15.5848 16.3963 15.4314 16.7468C15.2328 17.1901 15.2539 17.6724 15.1907 18.1487C15.0644 19.1223 14.8327 20.0809 14.586 21.0305C14.3273 22.0281 14.0445 23.0226 13.8099 24.0261C13.7978 24.0801 13.7858 24.131 13.7738 24.1849C13.5692 25.0896 13.4037 26.0092 13.3405 26.9409C13.2744 27.9534 13.3586 28.9569 13.5782 29.9485C13.7948 30.9281 14.1227 31.9016 14.201 32.9082C14.3243 34.5498 13.4519 36.8504 11.5656 37.0871C11.2617 37.123 11 37.3177 11 37.6473C11 37.9229 11.2587 38.2464 11.5656 38.2104C13.2112 38.0037 14.3754 36.8025 14.9681 35.3107C15.6871 33.5073 15.1486 31.7129 14.7244 29.9125C14.2942 28.0762 14.4506 26.2848 14.8688 24.4635C16.2106 22.5852 17.077 20.3924 17.9344 18.2566C18.0277 18.0289 18.1179 17.8042 18.2082 17.5795C18.3165 17.3069 18.4278 17.0343 18.5391 16.7647C18.5571 16.7258 18.5992 16.6509 18.6354 16.576C18.6805 16.6839 18.7617 16.8216 18.7828 16.9025C18.8189 17.0403 18.8429 17.1751 18.852 17.3159C18.879 17.6844 18.8189 18.0409 18.7166 18.3944C18.527 19.0684 18.1961 19.6915 17.8923 20.3175C17.5944 20.9317 17.2966 21.5428 17.0108 22.1629C16.361 23.5798 15.7473 25.0297 15.3953 26.5515C15.2298 27.2524 16.3189 27.555 16.4813 26.848C16.8393 25.3143 17.4591 23.8554 18.1239 22.4325C18.4428 21.7495 18.7767 21.0695 19.1047 20.3894C19.3062 19.9731 19.5078 19.5507 19.6642 19.1133C19.7244 19.0504 19.7665 18.9695 19.7936 18.8707C19.8447 18.67 20.0764 18.4812 20.296 18.5082C20.645 18.5471 20.642 18.9426 20.5908 19.2032C20.4223 20.0629 20.0914 20.9137 19.8357 21.7525C19.3092 23.5019 18.7798 25.2514 18.2533 27.0008C18.2352 27.0607 18.2262 27.1206 18.2262 27.1745C18.0607 27.543 17.9013 27.9175 17.7539 28.2949C17.6426 28.5795 17.8772 28.909 18.148 28.9869C18.4669 29.0768 18.7316 28.8761 18.8429 28.5945C19.4536 27.0248 20.287 25.5389 21.2948 24.1879C21.5024 23.9093 21.722 23.6367 21.9506 23.3701C21.9657 23.5109 21.9837 23.6517 21.9747 23.7865C21.9266 24.6432 21.5806 25.4551 21.2767 26.2459C20.9488 27.0907 20.6781 27.9294 20.6119 28.8401C20.5427 29.7568 20.66 30.6734 20.7051 31.5901C20.7894 33.3425 20.3712 34.9662 19.5108 36.4969C18.527 38.2434 17.1462 39.7083 15.7834 41.1611C15.287 41.6884 16.0842 42.4822 16.5806 41.955C17.9765 40.4662 19.3965 38.9564 20.4193 37.177C21.4091 35.4515 21.9296 33.5792 21.8333 31.5901C21.7821 30.5656 21.6287 29.5231 21.7731 28.4986C21.9175 27.4831 22.3929 26.5485 22.7238 25.5869ZM16.8875 17.8521C16.8875 17.8521 16.8845 17.8581 16.8845 17.8611C16.6408 18.4633 16.3941 19.0624 16.1384 19.6585C16.0963 19.7544 15.4645 21.2941 15.4224 21.39C15.4976 21.0335 16.009 18.9635 16.0541 18.7389C16.1534 18.2506 16.2888 17.8492 16.3971 17.3669C16.4512 17.1272 16.5806 16.8666 16.8363 16.8756C16.9085 16.8786 16.9567 17.0224 16.9687 17.1991C16.9867 17.4657 16.9597 17.6065 16.8875 17.8521ZM18.5992 16.4112C18.5692 16.4083 18.5902 16.3723 18.5992 16.4112V16.4112Z" fill="white"/>
<path d="M13.8098 24.0264C13.7977 24.0803 13.7857 24.1312 13.7737 24.1851C13.7737 24.1312 13.7857 24.0773 13.8098 24.0264Z" fill="white"/>
<path d="M37.5793 25.5238C36.4271 25.1763 35.2629 25.6047 34.4416 26.4435C34.0775 26.8179 33.8098 27.2733 33.5029 27.6927C33.542 26.5903 33.5842 25.4849 33.6263 24.3825C33.6534 23.6216 33.6804 22.8607 33.7105 22.0998C33.7346 21.4498 33.8369 20.7488 33.7195 20.1017C33.6052 19.4876 33.1118 19.0353 32.4771 19.0353C32.3868 19.0353 32.2966 19.0473 32.2093 19.0652C32.2063 18.7747 32.1702 18.4871 32.107 18.2205C31.8844 17.2559 30.8465 16.4501 29.8748 16.9953C29.2671 17.3368 28.9993 18.0168 28.8429 18.7147C28.2713 18.5021 27.5192 18.6459 27.104 19.0473C26.5234 19.6134 26.3459 20.5421 26.2406 21.3629C25.7773 21.3479 25.3321 21.5516 25.0072 21.941C24.5288 22.5192 24.5018 23.2891 24.4566 24.002C24.3483 25.7335 24.24 27.462 24.1347 29.1935C24.0294 30.874 23.873 32.5695 24.1648 34.2411C24.4145 35.688 25.0643 37.045 25.8886 38.2522C26.8243 39.6272 27.9705 40.8465 29.1227 42.0447C29.6251 42.5689 30.4223 41.7751 29.9199 41.2509C28.178 39.4355 26.3098 37.5033 25.5246 35.0559C25.0884 33.6899 25.0854 32.267 25.1606 30.847C25.2418 29.3462 25.3441 27.8424 25.4374 26.3416C25.4915 25.4879 25.5427 24.6371 25.5968 23.7834C25.6179 23.4598 25.6299 23.1033 25.7773 22.8068C25.8285 22.7079 25.9729 22.5252 26.1173 22.4683C25.9729 24.2387 26.1203 26.0211 26.2256 27.7885C26.2226 27.7885 26.2196 27.7915 26.2166 27.7915C25.9368 27.9143 25.8766 28.3187 26.015 28.5584C26.1805 28.849 26.5084 28.8819 26.7882 28.7621C28.1901 28.154 29.61 27.5878 31.012 26.9797C31.1865 26.9048 31.2918 26.6771 31.2918 26.4974C31.2887 24.7839 31.2496 23.0674 31.7009 21.4018C31.752 21.2101 31.7972 21.0004 31.8694 20.8057C31.8724 20.8027 31.8754 20.8027 31.8724 20.7997C31.8934 20.7398 31.9205 20.6799 31.9506 20.623C32.0108 20.4942 32.095 20.3803 32.2063 20.2875C32.6245 19.94 32.6395 20.3923 32.6335 20.7248C32.6034 21.992 32.5372 23.2621 32.4921 24.5323C32.438 25.9792 32.3838 27.426 32.3297 28.8759C32.3266 28.9328 32.3327 28.9838 32.3447 29.0287C32.3026 29.0736 32.2575 29.1126 32.2153 29.1545C31.3218 29.9873 30.1576 30.4097 29.2099 31.1706C28.2984 31.9015 27.6877 32.9889 27.9073 34.1752C28.0397 34.8852 29.1287 34.5826 28.9963 33.8756C28.8249 32.956 29.6642 32.1711 30.3591 31.7248C31.2677 31.1406 32.2183 30.6913 33.0156 29.9484C33.7857 29.2234 34.3603 28.3727 34.9861 27.5309C35.3591 27.0336 35.8766 26.6532 36.4572 26.5513C36.015 27.3332 35.663 28.169 35.3922 29.0197C35.2057 29.6069 35.1094 30.212 34.947 30.8051C34.8116 31.3024 34.6251 31.7787 34.4205 32.249C34.1949 32.7702 34.0174 33.3304 33.7466 33.8277C33.4849 34.307 33.1329 34.7324 32.829 35.1817C32.2003 36.1134 31.9476 37.1109 32.3808 38.1803C32.8321 39.2917 33.7647 40.2473 34.9259 40.6158C35.6178 40.8345 35.9157 39.7501 35.2237 39.5314C34.4085 39.2738 33.7075 38.5278 33.4127 37.737C33.0577 36.7904 33.5571 36.0804 34.0986 35.3285C34.3784 34.9391 34.6642 34.5526 34.8597 34.1123C35.0763 33.621 35.2659 33.1147 35.4795 32.6175C35.669 32.1771 35.8525 31.7338 35.9879 31.2724C36.1413 30.7452 36.2255 30.2 36.373 29.6728C36.7069 28.4955 37.2183 27.3571 37.9163 26.3476C38.1299 26.0391 37.9042 25.6227 37.5793 25.5238ZM28.175 23.328C28.0848 24.5383 28.0667 25.7605 28.157 26.9737C27.8802 27.0875 27.6034 27.2044 27.3267 27.3182C27.2364 25.8773 27.1432 24.4304 27.2154 22.9865C27.2545 22.1687 27.3447 21.3509 27.5613 20.5631C27.6335 20.3084 27.7268 19.925 27.9735 19.8022C28.1209 19.7273 28.4157 19.6973 28.53 19.8261C28.5601 19.8591 28.5902 19.886 28.6203 19.91C28.4097 21.0394 28.2653 22.1807 28.175 23.328ZM30.5246 21.4498C30.4193 21.8811 30.3441 22.3185 30.29 22.7588C30.1486 23.8762 30.1576 25.0056 30.1636 26.1319C29.8628 26.2607 29.5589 26.3896 29.2551 26.5154C29.1407 24.4124 29.3242 22.2855 29.7063 20.2156C29.7665 19.886 30.1094 17.3997 30.7803 18.0617C31.0661 18.3433 31.0812 18.7866 31.0721 19.1641C31.0601 19.5056 31.033 19.8381 30.9217 20.1527C30.8946 20.2305 30.8615 20.3084 30.8194 20.3833C30.7653 20.5301 30.7171 20.6829 30.678 20.8327C30.6209 21.0394 30.5727 21.2491 30.5246 21.4498Z" fill="white"/>
<path d="M30.7562 20.5066C30.7803 20.4677 30.8014 20.4257 30.8194 20.3838C30.7653 20.5306 30.7171 20.6834 30.678 20.8331C30.666 20.7313 30.6901 20.6204 30.7562 20.5066Z" fill="white"/>
<path d="M21.4483 11.6717C20.9188 10.4136 20.3894 9.15839 19.8599 7.90023C19.7095 7.54375 19.2071 7.42692 18.9152 7.63062C18.5753 7.86727 18.5061 8.27168 18.6685 8.65512C19.198 9.91329 19.7275 11.1685 20.257 12.4266C20.4074 12.7831 20.9098 12.8999 21.2016 12.6962C21.5416 12.4596 21.6108 12.0552 21.4483 11.6717Z" fill="white"/>
<path d="M25.8947 10.2342C25.8947 8.99401 25.8947 7.75681 25.8947 6.51662C25.8947 6.12419 25.5909 5.74974 25.2329 5.76771C24.8749 5.78569 24.568 6.09723 24.568 6.51662C24.568 7.75681 24.568 8.99401 24.568 10.2342C24.568 10.6266 24.8749 11.0011 25.2329 10.9831C25.5909 10.9651 25.8977 10.6536 25.8977 10.2342H25.8947Z" fill="white"/>
<path d="M29.586 12.3944C30.1847 11.265 30.7804 10.1327 31.379 9.00333C31.5475 8.6828 31.4573 8.21548 31.1474 8.03574C30.8375 7.85601 30.4434 7.94588 30.2629 8.29037C29.6642 9.41972 29.0686 10.5521 28.4699 11.6814C28.3014 12.002 28.3917 12.4693 28.7016 12.649C29.0114 12.8288 29.4055 12.7389 29.586 12.3944Z" fill="white"/>
</svg>
