<svg width="48" height="48" viewBox="0 0 48 48" fill="none" xmlns="http://www.w3.org/2000/svg">
<circle cx="24" cy="24" r="24" fill="#A848E4"/>
<path d="M13.1273 20.6304C13.096 21.6562 14.6895 21.6523 14.7208 20.6304C14.8539 16.4136 17.6965 12.5139 21.6588 11.0691C25.3979 9.7066 29.6422 10.3487 32.794 12.7958C35.6365 15.008 37.2183 18.5004 37.2105 22.083C37.2027 25.2975 35.8441 28.3632 33.3696 30.3952C32.4064 26.2567 27.4378 24.0994 23.5147 25.6146C23.1114 25.7673 22.8334 26.1432 22.9548 26.5934C23.0605 26.9811 23.5342 27.306 23.9375 27.1533C25.7425 26.4564 27.7785 26.6208 29.4621 27.5997C30.7698 28.3632 31.776 29.7218 31.9209 31.2527C31.9209 31.2997 31.9326 31.3467 31.9444 31.3897C29.3329 32.9363 26.1575 33.4766 23.2132 32.6074C22.2265 32.3137 21.8076 33.8525 22.7903 34.1461C23.2367 34.2753 23.6909 34.385 24.1529 34.4593C28.0095 35.0819 32.0266 33.8016 34.9005 31.1705C37.8331 28.4885 39.1799 24.4478 38.7179 20.5286C38.2285 16.3509 35.9106 12.6235 32.238 10.5132C28.3462 8.26967 23.4129 8.16787 19.4623 10.3252C15.7349 12.3573 13.2682 16.3862 13.1312 20.6265L13.1273 20.6304Z" fill="white"/>
<path d="M20.7141 18.3868C20.6162 17.1104 21.0195 15.8692 21.8496 14.8982C22.6835 13.9233 23.8425 13.3321 25.1228 13.2342C27.7656 13.0228 30.0718 15.0078 30.2793 17.6429C30.4868 20.2779 28.5095 22.5918 25.8706 22.7994C25.7453 22.8111 25.62 22.815 25.4947 22.815C23.0163 22.815 20.9138 20.9043 20.718 18.3907L20.7141 18.3868ZM25.2481 14.8238C24.3945 14.8904 23.6193 15.2858 23.0633 15.9358C22.5073 16.5857 22.2372 17.4119 22.3037 18.2654C22.4408 20.0234 23.9795 21.3429 25.7453 21.2097C27.5072 21.0727 28.8267 19.53 28.6897 17.7681C28.5605 16.0924 27.1548 14.816 25.4987 14.816C25.4164 14.816 25.3303 14.816 25.2481 14.8238Z" fill="white"/>
<path d="M15.371 33.4217C14.5996 34.8039 13.8244 36.182 13.0531 37.5642C12.7203 38.1632 11.8863 37.9948 11.6905 37.3801C11.2716 36.0763 10.8488 34.7764 10.4298 33.4726L11.1502 34.0404C9.84251 33.8642 8.44865 33.8094 7.43849 32.8109C6.42834 31.8125 6.09945 30.3834 6.08379 29.0522C6.07204 27.9833 6.25214 26.7343 6.8277 25.8142C7.57944 24.6201 8.71097 23.7078 10.0109 23.2379C11.0445 22.866 12.1526 22.8151 13.2371 22.772C14.674 22.7133 16.1501 22.7015 17.5401 23.144C18.93 23.5864 20.1359 24.4517 20.8524 25.7594C21.5102 26.9614 21.7373 28.3749 21.518 29.7335C21.0247 32.807 17.7437 34.8587 14.8776 33.8603C13.9732 33.5431 14.3608 32.0553 15.2731 32.3724C17.1289 33.0185 19.3255 31.9457 19.9245 29.9919C20.5588 27.9246 19.5721 25.6694 17.6497 24.8158C16.5221 24.3147 15.2496 24.2599 14.0398 24.2873C13.151 24.3068 12.1565 24.3186 11.346 24.4713C10.3476 24.6631 9.45097 25.0899 8.73055 25.8338C8.01013 26.5777 7.77521 27.1376 7.63034 28.1165C7.47764 29.1462 7.5951 30.3834 8.17457 31.3153C8.8206 32.3489 10.0853 32.3528 11.1502 32.4977C11.4987 32.5447 11.7571 32.7091 11.8707 33.0654C12.2896 34.3692 12.7124 35.6691 13.1314 36.9729L11.7689 36.7889C12.5402 35.4068 13.3154 34.0286 14.0867 32.6465C14.5683 31.789 15.8565 32.5643 15.3749 33.4256L15.371 33.4217Z" fill="white"/>
</svg>
