<?xml version="1.0" encoding="UTF-8"?>
<svg xmlns="http://www.w3.org/2000/svg" xmlns:xlink="http://www.w3.org/1999/xlink" width="42px" height="42px" viewBox="0 0 42 42" version="1.1">
<defs>
<linearGradient id="linear0" gradientUnits="userSpaceOnUse" x1="5.73661" y1="41.642101" x2="45.027199" y2="41.642101" gradientTransform="matrix(0.857143,0,0,0.933333,0,0)">
<stop offset="0" style="stop-color:rgb(0%,41.568627%,100%);stop-opacity:1;"/>
<stop offset="0.07" style="stop-color:rgb(10.980392%,38.823529%,98.431373%);stop-opacity:1;"/>
<stop offset="0.29" style="stop-color:rgb(42.745098%,31.372549%,94.901961%);stop-opacity:1;"/>
<stop offset="0.45" style="stop-color:rgb(63.137255%,26.666667%,92.941176%);stop-opacity:1;"/>
<stop offset="0.52" style="stop-color:rgb(70.980392%,25.098039%,92.156863%);stop-opacity:1;"/>
<stop offset="0.61" style="stop-color:rgb(59.607843%,34.509804%,85.098039%);stop-opacity:1;"/>
<stop offset="0.8" style="stop-color:rgb(31.372549%,59.607843%,67.45098%);stop-opacity:1;"/>
<stop offset="1" style="stop-color:rgb(0%,87.45098%,47.843137%);stop-opacity:1;"/>
</linearGradient>
<linearGradient id="linear1" gradientUnits="userSpaceOnUse" x1="0.000106839" y1="8.46656" x2="48.374001" y2="8.46656" gradientTransform="matrix(0.857143,0,0,0.933333,0,0)">
<stop offset="0" style="stop-color:rgb(0%,41.568627%,100%);stop-opacity:1;"/>
<stop offset="0.07" style="stop-color:rgb(10.980392%,38.823529%,98.431373%);stop-opacity:1;"/>
<stop offset="0.29" style="stop-color:rgb(42.745098%,31.372549%,94.901961%);stop-opacity:1;"/>
<stop offset="0.45" style="stop-color:rgb(63.137255%,26.666667%,92.941176%);stop-opacity:1;"/>
<stop offset="0.52" style="stop-color:rgb(70.980392%,25.098039%,92.156863%);stop-opacity:1;"/>
<stop offset="0.61" style="stop-color:rgb(59.607843%,34.509804%,85.098039%);stop-opacity:1;"/>
<stop offset="0.8" style="stop-color:rgb(31.372549%,59.607843%,67.45098%);stop-opacity:1;"/>
<stop offset="1" style="stop-color:rgb(0%,87.45098%,47.843137%);stop-opacity:1;"/>
</linearGradient>
<linearGradient id="linear2" gradientUnits="userSpaceOnUse" x1="9.94214" y1="27.4629" x2="47.678902" y2="27.4629" gradientTransform="matrix(0.857143,0,0,0.933333,0,0)">
<stop offset="0.02" style="stop-color:rgb(0%,41.568627%,100%);stop-opacity:1;"/>
<stop offset="0.05" style="stop-color:rgb(8.627451%,39.215686%,98.823529%);stop-opacity:1;"/>
<stop offset="0.15" style="stop-color:rgb(30.588235%,34.117647%,96.470588%);stop-opacity:1;"/>
<stop offset="0.24" style="stop-color:rgb(47.843137%,30.196078%,94.509804%);stop-opacity:1;"/>
<stop offset="0.32" style="stop-color:rgb(60.392157%,27.45098%,92.941176%);stop-opacity:1;"/>
<stop offset="0.39" style="stop-color:rgb(68.235294%,25.490196%,92.156863%);stop-opacity:1;"/>
<stop offset="0.44" style="stop-color:rgb(70.980392%,25.098039%,92.156863%);stop-opacity:1;"/>
<stop offset="0.58" style="stop-color:rgb(49.411765%,43.921569%,78.431373%);stop-opacity:1;"/>
<stop offset="0.77" style="stop-color:rgb(22.745098%,67.058824%,61.960784%);stop-opacity:1;"/>
<stop offset="0.91" style="stop-color:rgb(6.27451%,81.568627%,51.764706%);stop-opacity:1;"/>
<stop offset="0.98" style="stop-color:rgb(0%,87.45098%,47.843137%);stop-opacity:1;"/>
</linearGradient>
<linearGradient id="linear3" gradientUnits="userSpaceOnUse" x1="9.89991" y1="-5.04687" x2="47.6367" y2="-5.04687" gradientTransform="matrix(0.857143,0,0,0.933333,0,0)">
<stop offset="0.02" style="stop-color:rgb(0%,41.568627%,100%);stop-opacity:1;"/>
<stop offset="0.05" style="stop-color:rgb(8.627451%,39.215686%,98.823529%);stop-opacity:1;"/>
<stop offset="0.15" style="stop-color:rgb(30.588235%,34.117647%,96.470588%);stop-opacity:1;"/>
<stop offset="0.24" style="stop-color:rgb(47.843137%,30.196078%,94.509804%);stop-opacity:1;"/>
<stop offset="0.32" style="stop-color:rgb(60.392157%,27.45098%,92.941176%);stop-opacity:1;"/>
<stop offset="0.39" style="stop-color:rgb(68.235294%,25.490196%,92.156863%);stop-opacity:1;"/>
<stop offset="0.44" style="stop-color:rgb(70.980392%,25.098039%,92.156863%);stop-opacity:1;"/>
<stop offset="0.58" style="stop-color:rgb(49.411765%,43.921569%,78.431373%);stop-opacity:1;"/>
<stop offset="0.77" style="stop-color:rgb(22.745098%,67.058824%,61.960784%);stop-opacity:1;"/>
<stop offset="0.91" style="stop-color:rgb(6.27451%,81.568627%,51.764706%);stop-opacity:1;"/>
<stop offset="0.98" style="stop-color:rgb(0%,87.45098%,47.843137%);stop-opacity:1;"/>
</linearGradient>
<linearGradient id="linear4" gradientUnits="userSpaceOnUse" x1="6.55166" y1="-5.04687" x2="44.288399" y2="-5.04687" gradientTransform="matrix(0.857143,0,0,0.933333,0,0)">
<stop offset="0.02" style="stop-color:rgb(0%,41.568627%,100%);stop-opacity:1;"/>
<stop offset="0.05" style="stop-color:rgb(8.627451%,39.215686%,98.823529%);stop-opacity:1;"/>
<stop offset="0.15" style="stop-color:rgb(30.588235%,34.117647%,96.470588%);stop-opacity:1;"/>
<stop offset="0.24" style="stop-color:rgb(47.843137%,30.196078%,94.509804%);stop-opacity:1;"/>
<stop offset="0.32" style="stop-color:rgb(60.392157%,27.45098%,92.941176%);stop-opacity:1;"/>
<stop offset="0.39" style="stop-color:rgb(68.235294%,25.490196%,92.156863%);stop-opacity:1;"/>
<stop offset="0.44" style="stop-color:rgb(70.980392%,25.098039%,92.156863%);stop-opacity:1;"/>
<stop offset="0.58" style="stop-color:rgb(49.411765%,43.921569%,78.431373%);stop-opacity:1;"/>
<stop offset="0.77" style="stop-color:rgb(22.745098%,67.058824%,61.960784%);stop-opacity:1;"/>
<stop offset="0.91" style="stop-color:rgb(6.27451%,81.568627%,51.764706%);stop-opacity:1;"/>
<stop offset="0.98" style="stop-color:rgb(0%,87.45098%,47.843137%);stop-opacity:1;"/>
</linearGradient>
<linearGradient id="linear5" gradientUnits="userSpaceOnUse" x1="5.57308" y1="-5.04687" x2="43.309799" y2="-5.04687" gradientTransform="matrix(0.857143,0,0,0.933333,0,0)">
<stop offset="0.02" style="stop-color:rgb(0%,41.568627%,100%);stop-opacity:1;"/>
<stop offset="0.05" style="stop-color:rgb(8.627451%,39.215686%,98.823529%);stop-opacity:1;"/>
<stop offset="0.15" style="stop-color:rgb(30.588235%,34.117647%,96.470588%);stop-opacity:1;"/>
<stop offset="0.24" style="stop-color:rgb(47.843137%,30.196078%,94.509804%);stop-opacity:1;"/>
<stop offset="0.32" style="stop-color:rgb(60.392157%,27.45098%,92.941176%);stop-opacity:1;"/>
<stop offset="0.39" style="stop-color:rgb(68.235294%,25.490196%,92.156863%);stop-opacity:1;"/>
<stop offset="0.44" style="stop-color:rgb(70.980392%,25.098039%,92.156863%);stop-opacity:1;"/>
<stop offset="0.58" style="stop-color:rgb(49.411765%,43.921569%,78.431373%);stop-opacity:1;"/>
<stop offset="0.77" style="stop-color:rgb(22.745098%,67.058824%,61.960784%);stop-opacity:1;"/>
<stop offset="0.91" style="stop-color:rgb(6.27451%,81.568627%,51.764706%);stop-opacity:1;"/>
<stop offset="0.98" style="stop-color:rgb(0%,87.45098%,47.843137%);stop-opacity:1;"/>
</linearGradient>
</defs>
<g id="surface1">
<path style=" stroke:none;fill-rule:nonzero;fill:url(#linear0);" d="M 5.347656 41.921875 C 13.453125 38.652344 22.523438 37.746094 31.054688 39.222656 C 33.472656 39.644531 35.855469 40.261719 38.171875 41.105469 C 39.746094 41.675781 40.421875 38.972656 38.855469 38.40625 C 30.253906 35.28125 20.71875 35.058594 11.871094 37.007812 C 9.417969 37.542969 7.011719 38.285156 4.664062 39.230469 C 4.011719 39.492188 3.570312 40.175781 3.765625 40.953125 C 3.933594 41.636719 4.691406 42.195312 5.347656 41.933594 Z M 5.347656 41.921875 "/>
<path style=" stroke:none;fill-rule:nonzero;fill:rgb(10.588235%,40.784314%,100%);fill-opacity:1;" d="M 2.378906 37.355469 C 5.265625 36.117188 6.929688 33.15625 7.765625 30.019531 C 8.753906 26.316406 8.730469 22.3125 7.804688 18.59375 C 7.375 16.859375 4.890625 17.597656 5.328125 19.339844 C 6.097656 22.425781 6.148438 25.683594 5.414062 28.777344 C 4.886719 31 3.820312 33.742188 1.703125 34.652344 C 1.054688 34.925781 0.605469 35.585938 0.800781 36.375 C 0.972656 37.046875 1.734375 37.628906 2.386719 37.355469 Z M 2.378906 37.355469 "/>
<path style=" stroke:none;fill-rule:nonzero;fill:url(#linear1);" d="M 39.832031 15.808594 L 1.734375 15.808594 C 0.941406 15.808594 0.265625 15.253906 0.0625 14.425781 C -0.144531 13.605469 0.175781 12.761719 0.855469 12.332031 L 19.40625 0.484375 C 20.441406 -0.175781 21.714844 -0.160156 22.734375 0.523438 L 40.691406 12.542969 C 41.3125 12.960938 41.601562 13.753906 41.402344 14.519531 C 41.199219 15.285156 40.570312 15.808594 39.832031 15.808594 Z M 4.875 13.007812 L 36.46875 13.007812 L 21.386719 2.910156 C 21.183594 2.769531 20.914062 2.769531 20.707031 2.902344 Z M 4.875 13.007812 "/>
<path style=" stroke:none;fill-rule:nonzero;fill:url(#linear2);" d="M 35.875 19.574219 C 35.875 18.867188 35.347656 18.292969 34.699219 18.292969 C 34.050781 18.292969 33.523438 18.867188 33.523438 19.574219 L 33.523438 31.683594 C 33.523438 32.390625 34.050781 32.964844 34.699219 32.964844 C 35.347656 32.964844 35.875 32.390625 35.875 31.683594 Z M 35.875 19.574219 "/>
<path style=" stroke:none;fill-rule:nonzero;fill:url(#linear3);" d="M 29.101562 19.574219 C 29.101562 18.867188 28.574219 18.292969 27.925781 18.292969 C 27.277344 18.292969 26.75 18.867188 26.75 19.574219 L 26.75 31.683594 C 26.75 32.390625 27.277344 32.964844 27.925781 32.964844 C 28.574219 32.964844 29.101562 32.390625 29.101562 31.683594 Z M 29.101562 19.574219 "/>
<path style=" stroke:none;fill-rule:nonzero;fill:url(#linear4);" d="M 21.757812 19.574219 C 21.757812 18.867188 21.230469 18.292969 20.582031 18.292969 C 19.933594 18.292969 19.40625 18.867188 19.40625 19.574219 L 19.40625 31.683594 C 19.40625 32.390625 19.933594 32.964844 20.582031 32.964844 C 21.230469 32.964844 21.757812 32.390625 21.757812 31.683594 Z M 21.757812 19.574219 "/>
<path style=" stroke:none;fill-rule:nonzero;fill:url(#linear5);" d="M 14.515625 19.574219 C 14.515625 18.867188 13.992188 18.292969 13.339844 18.292969 C 12.691406 18.292969 12.167969 18.867188 12.167969 19.574219 L 12.167969 31.683594 C 12.167969 32.390625 12.691406 32.964844 13.339844 32.964844 C 13.992188 32.964844 14.515625 32.390625 14.515625 31.683594 Z M 14.515625 19.574219 "/>
</g>
</svg>
