<?xml version="1.0" encoding="UTF-8"?>
<svg id="Calque_1" data-name="Calque 1" xmlns="http://www.w3.org/2000/svg" xmlns:xlink="http://www.w3.org/1999/xlink" viewBox="0 0 338.83 324.19">
  <defs>
    <style>
      .cls-1 {
        fill: url(#Dégradé_sans_nom_147);
      }

      .cls-2 {
        fill: url(#Dégradé_sans_nom_136);
      }
    </style>
    <linearGradient id="Dégradé_sans_nom_136" data-name="Dégradé sans nom 136" x1="-7.29" y1="287.27" x2="106.37" y2="114.85" gradientUnits="userSpaceOnUse">
      <stop offset=".15" stop-color="#006aff"/>
      <stop offset=".24" stop-color="#0867fe"/>
      <stop offset=".39" stop-color="#2062fb"/>
      <stop offset=".58" stop-color="#4759f7"/>
      <stop offset=".8" stop-color="#7d4cf1"/>
      <stop offset="1" stop-color="#b540eb"/>
    </linearGradient>
    <linearGradient id="Dégradé_sans_nom_147" data-name="Dégradé sans nom 147" x1="69.68" y1="212.63" x2="241.1" y2="-76.77" gradientUnits="userSpaceOnUse">
      <stop offset="0" stop-color="#006aff"/>
      <stop offset="0" stop-color="#2661fa"/>
      <stop offset=".01" stop-color="#5157f6"/>
      <stop offset=".02" stop-color="#754ef2"/>
      <stop offset=".02" stop-color="#9148ee"/>
      <stop offset=".03" stop-color="#a543ec"/>
      <stop offset=".04" stop-color="#b140eb"/>
      <stop offset=".04" stop-color="#b540eb"/>
      <stop offset=".12" stop-color="#9c56d9"/>
      <stop offset=".33" stop-color="#6587b3"/>
      <stop offset=".51" stop-color="#39ae95"/>
      <stop offset=".68" stop-color="#19ca7f"/>
      <stop offset=".82" stop-color="#06db72"/>
      <stop offset=".92" stop-color="#00e26e"/>
    </linearGradient>
  </defs>
  <path class="cls-2" d="M7.35,49.85c0-.08-.02-.32-.08-.33-.63-.12-7.51,19.85-7.26,36.48.45,29.5,22.63,53.06,38.68,70.11,2.55,2.71,11.34,11.7,18.03,17.13.59.48,3.65,2.99,7.93,6.49,1.4,1.14,3.12,2.57,5.47,4.56,5.46,4.63,9.64,8.19,14.94,13.26,2.4,2.29,6.7,6.5,11.85,12.16,6.4,7.03,9.65,10.64,11.85,14.92.82,1.59,3.67,7.39,4.64,15.47,1.69,14.11-3.58,25.13-6.18,30.39-.99,2.01-5.25,11.37-14.8,21.22-6.94,7.16-12.16,13.23-23.25,18.26s-13.31,5.93-33.05,5.28c-2.75-.09,8.5,5.29,13.4,6.63,9.53,2.62,17.42,2.42,21.13,2.21,16.4-.95,28.7-6.91,32.46-8.84,3.59-1.85,20.8-11.02,34.52-32.05,13.86-21.22,16.03-42.07,16.49-47.52.68-8.21,1.93-25.53-6.18-44.2-7.03-16.19-17.47-25.05-30.92-36.47-10.4-8.83-19.99-14.54-39.16-25.97-13.57-8.09-18.46-10.64-24.14-14.24-4.69-2.97-8.12-5.46-9.26-6.27-18.26-12.89-21.83-21.02-25.68-27.04-5.3-8.3-11.24-28.27-11.41-31.63Z"/>
  <path class="cls-1" d="M270.18,41.05c-2.57-.4-5.14-.79-7.71-1.19l-8.56-4.6c-4.58-2.09-12.53-4.84-22.31-3.92-8.57.8-14.9,4.08-18.5,5.99-5.19,2.74-8.84,5.73-11.17,7.65-2.32,1.92-6.25,5.2-10.46,10.49-2.9,3.65-4.61,6.63-6.81,10.43-1.68,2.92-4.4,7.67-7.08,14.36-2.48,6.19-3.74,11.1-4.75,15.03-1.57,6.19-2.64,10.36-3.07,16.07-.64,8.45.59,12.34,0,11.32-2.6-4.4-3.71-5.25-7.96-11.2-3.55-4.98-6.64-7.94-12.83-13.33-6.91-6.03-12.63-9.78-18.48-13.6-6.15-4.02-8.11-4.84-20.11-11.79-3.44-1.99-8.44-4.96-18.44-10.91-31.04-18.45-43.98-26.69-53.91-36.85,0,0-12.16-12.46-12.03-22.07,0-.26.07-2.83-.31-2.93-.07-.02-.18.14-.38.49-1.45,2.54-3.58,8.5-4.39,16.09-1.37,12.93-.03,22.96.41,25.97.89,6.09,2.26,15.49,7.1,25.86,6.11,13.08,14.43,20.6,22.59,27.83,9.45,8.37,17.58,12.95,33.84,22.13,14.03,7.92,15.59,8.99,27.14,15.9,13.72,8.2,19.19,12.75,27.36,21.21,8.52,8.82,13.61,16.37,16.99,23.08,7.23,14.35,8.64,25.29,9.37,28.57,1.04,4.67,1.47,13.48.77,25.69-1.06,18.51-4.98,26.04-6.71,30.27-1.46,3.54,17.31-12.61,20.37-15.79,12.44-12.91,22.58-23.43,31.82-41.39,3.98-7.74,13.77-27.2,16.17-53.3.16-1.69.51-9.36,1.57-19.95.07-.7.94-9.37,1.52-13.25,3.86-25.9,25.5-46.31,29.62-50.2,5.77-5.44,10.25-8.32,13.75-10.21,6.54-3.52,12.11-4.85,15.89-5.73,14.93-3.49,38.59-6.3,48.35-7.99-22.88-1.41-45.77-2.82-68.65-4.23ZM238.02,55.22c-3.6,0-6.52-2.17-6.52-4.85s2.92-4.85,6.52-4.85,6.52,2.17,6.52,4.85-2.92,4.85-6.52,4.85Z"/>
</svg>